<svg xmlns="http://www.w3.org/2000/svg" width="23.923" height="20" viewBox="0 0 23.923 20">
  <path id="Path_530" data-name="Path 530" d="M19.093-38.18a11.956,11.956,0,0,0-7.368,4.5,12.915,12.915,0,0,0-2.871,8.517,9.235,9.235,0,0,0,1.053,4.88,4.043,4.043,0,0,0,3.732,2.105,3.965,3.965,0,0,0,2.966-1.148A3.906,3.906,0,0,0,17.658-22.2a3.6,3.6,0,0,0-1.053-2.679,3.832,3.832,0,0,0-2.775-1.148,4.033,4.033,0,0,0-1.818.191,9.26,9.26,0,0,1,1.627-5.742,8.842,8.842,0,0,1,5.455-3.732Zm-13.684,0a11.956,11.956,0,0,0-7.368,4.5A12.915,12.915,0,0,0-4.83-25.166,9.343,9.343,0,0,0-3.682-20.19,3.918,3.918,0,0,0-.045-18.18a4.041,4.041,0,0,0,3.062-1.148A4.7,4.7,0,0,0,3.974-22.2a3.6,3.6,0,0,0-1.053-2.679A3.832,3.832,0,0,0,.146-26.027c-.957,0-1.627,0-1.818.191A9.26,9.26,0,0,1-.045-31.577a8.842,8.842,0,0,1,5.455-3.732Z" transform="translate(4.83 38.18)" fill="#b69040" opacity="0.398"/>
</svg>
