<svg xmlns="http://www.w3.org/2000/svg" width="10" height="9.973" viewBox="0 0 10 9.973">
  <path id="Path_937" data-name="Path 937" d="M7.376-13.122a.778.778,0,0,0-.584.231.739.739,0,0,0-.231.584.769.769,0,0,0,.231.571.833.833,0,0,0,.584.231.866.866,0,0,0,.6-.231.778.778,0,0,0,.231-.571.788.788,0,0,0-.231-.584A.809.809,0,0,0,7.376-13.122Zm-3.37.965-.679.679L6.7-8.108l-3.37,3.37.679.693,3.37-3.37,3.37,3.37.679-.693-3.37-3.37,3.37-3.37-.679-.679-3.37,3.37Zm-.815,3.22a.729.729,0,0,0-.571.231.749.749,0,0,0-.245.584.782.782,0,0,0,.245.571.778.778,0,0,0,.571.231.866.866,0,0,0,.6-.231.778.778,0,0,0,.231-.571.788.788,0,0,0-.231-.584A.788.788,0,0,0,3.191-8.937Zm8.356,0a.778.778,0,0,0-.584.231.739.739,0,0,0-.231.584.769.769,0,0,0,.231.571.833.833,0,0,0,.584.231.866.866,0,0,0,.6-.231.778.778,0,0,0,.231-.571.788.788,0,0,0-.231-.584A.788.788,0,0,0,11.547-8.937ZM7.376-4.766a.778.778,0,0,0-.584.231.739.739,0,0,0-.231.584.769.769,0,0,0,.231.571.833.833,0,0,0,.584.231.922.922,0,0,0,.6-.217A.833.833,0,0,0,8.2-3.951a.788.788,0,0,0-.231-.584A.809.809,0,0,0,7.376-4.766Z" transform="translate(-2.376 13.122)" fill="#4a442d"/>
</svg>
