<svg xmlns="http://www.w3.org/2000/svg" width="92.056" height="78.132" viewBox="0 0 92.056 78.132">
  <g id="esun30" transform="translate(-509.835 -33.907)">
    <path id="Path_346" data-name="Path 346" d="M549.337,71.125a19.045,19.045,0,0,0-8.615-13.877,20.162,20.162,0,0,0-5.417-2.5l13.543-13.051,2.13-2.052L545.2,34.071V34h-.075l-.1-.092-.1.092H513.357v8.11h23.157L523.22,54.919l-.02.005,1.666,7.52a12.353,12.353,0,0,1,2.344-.684,12.525,12.525,0,0,1,2.35-.229,12.372,12.372,0,0,1,3.027.414,11.682,11.682,0,0,1,9.031,11.2,11.156,11.156,0,0,1-.748,3.9,11.711,11.711,0,0,1-5.589,6.265,12.123,12.123,0,0,1-12.046-.312,11.674,11.674,0,0,1-5.352-6.944h-8.048A19.539,19.539,0,0,0,525.084,91.87a20.671,20.671,0,0,0,4.475.506c.351,0,.695-.033,1.042-.052C541.134,91.8,549.51,83.43,549.51,73.15A18.423,18.423,0,0,0,549.337,71.125Z" transform="translate(0 0)" fill="#fff"/>
    <path id="Path_347" data-name="Path 347" d="M575.878,56.905A20.812,20.812,0,0,0,555.366,40.3a21.06,21.06,0,0,0-11.228,3.232c.753-.04,1.5-.1,2.265-.1h0c-.765,0-1.512.055-2.265.1a20.955,20.955,0,0,0-1.95,1.371h0a20.14,20.14,0,0,0-7.063,20.984A21.032,21.032,0,0,0,572.708,72.3a31.77,31.77,0,0,0-2.477-2.023,31.77,31.77,0,0,1,2.477,2.023,20.143,20.143,0,0,0,3.17-15.395ZM555.366,75.014a14.381,14.381,0,0,1-14.024-10.866,13.91,13.91,0,0,1,5.1-14.455,14.521,14.521,0,0,1,8.919-3.045A14.312,14.312,0,0,1,569.8,60.832a13.767,13.767,0,0,1-.105,1.648,13.919,13.919,0,0,1-2.187,6h0A14.475,14.475,0,0,1,555.366,75.014Z" transform="translate(16.484 4.277)" fill="#fff"/>
    <rect id="Rectangle_15" data-name="Rectangle 15" width="0.883" height="0.816" transform="translate(563.913 107.353)" fill="#fff"/>
    <path id="Path_348" data-name="Path 348" d="M546.117,78.993a.9.9,0,0,0-.367-.269,1.366,1.366,0,0,0-1.633.461v-.491h-.82v3.335h.881V80.519a2.865,2.865,0,0,1,.068-.766.634.634,0,0,1,.25-.332.7.7,0,0,1,.411-.125.526.526,0,0,1,.305.087.479.479,0,0,1,.184.247,2.566,2.566,0,0,1,.058.7v1.7h.881V79.956a2.806,2.806,0,0,0-.048-.593A1,1,0,0,0,546.117,78.993Z" transform="translate(22.398 29.928)" fill="#fff"/>
    <path id="Path_349" data-name="Path 349" d="M547.591,81.243a.594.594,0,0,1-.411.142.655.655,0,0,1-.536-.244,1.346,1.346,0,0,1-.2-.838,1.172,1.172,0,0,1,.2-.763.66.66,0,0,1,.526-.229.6.6,0,0,1,.4.134.628.628,0,0,1,.2.392l.87-.157a1.442,1.442,0,0,0-.516-.8,1.608,1.608,0,0,0-.968-.262,1.552,1.552,0,0,0-1.182.461,2.105,2.105,0,0,0,0,2.562,1.526,1.526,0,0,0,1.167.462,1.61,1.61,0,0,0,1.027-.3,1.543,1.543,0,0,0,.519-.9l-.868-.149A.855.855,0,0,1,547.591,81.243Z" transform="translate(23.898 29.928)" fill="#fff"/>
    <path id="Path_350" data-name="Path 350" d="M541.012,76.479a1.482,1.482,0,1,0-1.477-1.484A1.479,1.479,0,0,0,541.012,76.479Z" transform="translate(19.88 26.511)" fill="#fff"/>
    <path id="Path_351" data-name="Path 351" d="M535.446,74.832h5.77V72.9h-5.77V70.345h6.2V68.41h-8.5V79.881h8.718V77.946h-6.415Z" transform="translate(15.601 23.094)" fill="#fff"/>
    <path id="Path_352" data-name="Path 352" d="M542.575,80a4.483,4.483,0,0,0-1-.331,2.423,2.423,0,0,1-.853-.309.348.348,0,0,1-.138-.279.332.332,0,0,1,.147-.285,1.057,1.057,0,0,1,.634-.167.937.937,0,0,1,.589.155.794.794,0,0,1,.257.511l.928-.042a1.338,1.338,0,0,0-.459-1.013,1.944,1.944,0,0,0-1.305-.381,2.3,2.3,0,0,0-.906.16,1.251,1.251,0,0,0-.574.466,1.2,1.2,0,0,0,.225,1.584,2.509,2.509,0,0,0,1.048.456c.387.1.634.164.745.2a.779.779,0,0,1,.334.2.424.424,0,0,1,.1.279.565.565,0,0,1-.227.444,1.033,1.033,0,0,1-.676.19,1,1,0,0,1-.674-.214,1.1,1.1,0,0,1-.331-.669l-.9.088a1.751,1.751,0,0,0,.559,1.175,1.994,1.994,0,0,0,1.341.4,2.572,2.572,0,0,0,1-.169,1.3,1.3,0,0,0,.621-.512,1.353,1.353,0,0,0,.22-.741,1.367,1.367,0,0,0-.184-.735A1.309,1.309,0,0,0,542.575,80Z" transform="translate(19.872 29.418)" fill="#fff"/>
    <rect id="Rectangle_16" data-name="Rectangle 16" width="8.307" height="0.721" transform="translate(548.506 109.312)" fill="#fff"/>
    <rect id="Rectangle_17" data-name="Rectangle 17" width="0.883" height="3.335" transform="translate(563.913 108.622)" fill="#fff"/>
    <path id="Path_353" data-name="Path 353" d="M559.31,80.943a5.539,5.539,0,0,0,.578-.588,2.424,2.424,0,0,0,.354-.589,1.577,1.577,0,0,0,.112-.593,1.205,1.205,0,0,0-.389-.913,1.5,1.5,0,0,0-1.072-.367,1.652,1.652,0,0,0-1.037.317,1.445,1.445,0,0,0-.494,1.045l.88.088a.865.865,0,0,1,.189-.553.587.587,0,0,1,.441-.167.593.593,0,0,1,.437.159.609.609,0,0,1,.159.454.962.962,0,0,1-.182.539,6.122,6.122,0,0,1-.731.755,5.882,5.882,0,0,0-.993,1.105,2.16,2.16,0,0,0-.3.88h3.095V81.7H558.6a1.671,1.671,0,0,1,.18-.245C558.856,81.367,559.031,81.2,559.31,80.943Z" transform="translate(31.742 29.442)" fill="#fff"/>
    <path id="Path_354" data-name="Path 354" d="M561.537,72.4h.033l4.584,7.485h2.326V68.41h-2.15v7.66H566.3l-4.668-7.66h-2.239V79.881h2.143Z" transform="translate(33.172 23.094)" fill="#fff"/>
    <path id="Path_355" data-name="Path 355" d="M552.348,76.625c0-2.82-2.372-3.382-4.118-3.8-1.843-.436-2.559-.755-2.559-1.494,0-.93,1.245-1.138,1.936-1.138,1.83,0,2,1.078,2.1,1.673l2.32-.1c-.1-2.6-2.145-3.469-4.387-3.469-3.367,0-4.183,1.946-4.183,3.2,0,2.531,2.531,3.155,3.666,3.444,2.12.514,2.923.721,2.923,1.684,0,.734-.648,1.583-2.265,1.583a2.347,2.347,0,0,1-2.5-2.19l-2.242.2c.447,3.819,3.494,3.928,4.728,3.928a6.578,6.578,0,0,0,2.708-.512A3.371,3.371,0,0,0,552.348,76.625Z" transform="translate(22.224 23.019)" fill="#fff"/>
    <rect id="Rectangle_18" data-name="Rectangle 18" width="7.715" height="0.659" transform="translate(594.176 109.312)" fill="#fff"/>
    <path id="Path_356" data-name="Path 356" d="M556.618,77.893a1.409,1.409,0,0,0-1.06.429,1.725,1.725,0,0,0-.022,2.22,1.246,1.246,0,0,0,.937.419,1.055,1.055,0,0,0,.833-.386,2.123,2.123,0,0,1-.245,1.042.565.565,0,0,1-.464.252.486.486,0,0,1-.349-.125.626.626,0,0,1-.164-.387l-.853.093a1.38,1.38,0,0,0,.426.86,1.291,1.291,0,0,0,.875.287,1.509,1.509,0,0,0,1.217-.559,3.767,3.767,0,0,0,.02-3.6A1.43,1.43,0,0,0,556.618,77.893Zm.436,2.22a.547.547,0,0,1-.429.2.556.556,0,0,1-.441-.209,1.006,1.006,0,0,1-.175-.654.989.989,0,0,1,.162-.633.509.509,0,0,1,.407-.194.583.583,0,0,1,.454.235,1.012,1.012,0,0,1,.2.663A.882.882,0,0,1,557.053,80.113Z" transform="translate(30.326 29.442)" fill="#fff"/>
    <path id="Path_357" data-name="Path 357" d="M550.347,79.11a1.481,1.481,0,0,0-1.175-.491,1.429,1.429,0,0,0-1.1.469,1.837,1.837,0,0,0-.434,1.3,1.91,1.91,0,0,0,.331,1.15,1.488,1.488,0,0,0,1.287.568,1.571,1.571,0,0,0,.915-.252,1.446,1.446,0,0,0,.536-.736l-.88-.149a.693.693,0,0,1-.214.366.54.54,0,0,1-.349.112.661.661,0,0,1-.508-.219.882.882,0,0,1-.214-.611h2.21A2.171,2.171,0,0,0,550.347,79.11Zm-1.785.967a.817.817,0,0,1,.185-.571.639.639,0,0,1,.937-.012.852.852,0,0,1,.2.583Z" transform="translate(25.307 29.928)" fill="#fff"/>
    <path id="Path_358" data-name="Path 358" d="M551.79,78.629a2.556,2.556,0,0,1-.751.429v.8a3.054,3.054,0,0,0,1.14-.668v3.325h.883V77.893h-.716A1.647,1.647,0,0,1,551.79,78.629Z" transform="translate(27.58 29.442)" fill="#fff"/>
    <path id="Path_359" data-name="Path 359" d="M554.475,77.893a1.411,1.411,0,0,0-1.06.429A1.55,1.55,0,0,0,553,79.451a1.529,1.529,0,0,0,.4,1.092,1.243,1.243,0,0,0,.936.419,1.057,1.057,0,0,0,.833-.386,2.162,2.162,0,0,1-.245,1.042.57.57,0,0,1-.466.252.486.486,0,0,1-.349-.125.625.625,0,0,1-.162-.387l-.855.093a1.382,1.382,0,0,0,.427.86,1.286,1.286,0,0,0,.873.287,1.51,1.51,0,0,0,1.219-.559,2.841,2.841,0,0,0,.467-1.821,2.805,2.805,0,0,0-.449-1.783A1.427,1.427,0,0,0,554.475,77.893Zm.436,2.22a.547.547,0,0,1-.429.2.558.558,0,0,1-.441-.209,1.016,1.016,0,0,1-.175-.654.989.989,0,0,1,.162-.633.511.511,0,0,1,.407-.194.581.581,0,0,1,.454.235,1.012,1.012,0,0,1,.2.663A.873.873,0,0,1,554.91,80.113Z" transform="translate(28.892 29.442)" fill="#fff"/>
    <path id="Path_360" data-name="Path 360" d="M551.082,68.41v6.121c0,2.646,0,5.542,4.7,5.542a4.3,4.3,0,0,0,3.814-1.583c.561-.871.638-2.007.638-4.058V68.41h-2.307v6.325c0,1.955,0,3.352-2.205,3.352a2.176,2.176,0,0,1-2.035-1.007,5.151,5.151,0,0,1-.291-2.469v-6.2Z" transform="translate(27.609 23.094)" fill="#fff"/>
  </g>
</svg>
