<svg xmlns="http://www.w3.org/2000/svg" xmlns:xlink="http://www.w3.org/1999/xlink" width="1313" height="195" viewBox="0 0 1313 195">
  <defs>
    <clipPath id="clip-path">
      <rect id="Rectangle_1260" data-name="Rectangle 1260" width="1313" height="195" transform="translate(6604 -1027)" fill="#fff" stroke="#707070" stroke-width="1"/>
    </clipPath>
    <radialGradient id="radial-gradient" cx="0.5" cy="0.5" r="2.345" gradientTransform="translate(-0.928 0.265) scale(0.159 0.47)" gradientUnits="objectBoundingBox">
      <stop offset="0" stop-color="#b69040"/>
      <stop offset="1" stop-color="#5b3417"/>
    </radialGradient>
    <radialGradient id="radial-gradient-16" cx="0.5" cy="0.5" r="4.275" gradientTransform="translate(-0.469 0.265) scale(0.084 0.47)" gradientUnits="objectBoundingBox">
      <stop offset="0" stop-color="#d3a33b"/>
      <stop offset="1" stop-color="#5b3417"/>
    </radialGradient>
    <radialGradient id="radial-gradient-17" r="4.233" gradientTransform="translate(-0.504 0.265) scale(0.085 0.47)" xlink:href="#radial-gradient-16"/>
    <radialGradient id="radial-gradient-18" r="4.201" gradientTransform="translate(-0.554 0.265) scale(0.086 0.47)" xlink:href="#radial-gradient-16"/>
    <radialGradient id="radial-gradient-19" r="4.169" gradientTransform="translate(-0.629 0.265) scale(0.086 0.47)" xlink:href="#radial-gradient-16"/>
    <radialGradient id="radial-gradient-20" r="4.523" gradientTransform="translate(-0.737 0.265) scale(0.079 0.47)" xlink:href="#radial-gradient-16"/>
    <radialGradient id="radial-gradient-21" r="4.755" gradientTransform="translate(-0.863 0.265) scale(0.075 0.47)" xlink:href="#radial-gradient-16"/>
    <radialGradient id="radial-gradient-22" r="4.84" gradientTransform="translate(-0.998 0.265) scale(0.074 0.47)" xlink:href="#radial-gradient-16"/>
    <radialGradient id="radial-gradient-23" r="5.585" gradientTransform="translate(-1.202 0.265) scale(0.064 0.47)" xlink:href="#radial-gradient-16"/>
    <radialGradient id="radial-gradient-24" r="5.61" gradientTransform="translate(-1.386 0.265) scale(0.064 0.47)" xlink:href="#radial-gradient-16"/>
    <radialGradient id="radial-gradient-25" r="6.201" gradientTransform="translate(-1.634 0.265) scale(0.057 0.47)" xlink:href="#radial-gradient-16"/>
    <radialGradient id="radial-gradient-26" r="5.942" gradientTransform="translate(-1.967 0.265) scale(0.06 0.47)" xlink:href="#radial-gradient-16"/>
    <radialGradient id="radial-gradient-27" r="6.462" gradientTransform="translate(-2.406 0.265) scale(0.055 0.47)" xlink:href="#radial-gradient-16"/>
    <radialGradient id="radial-gradient-28" r="7.508" gradientTransform="translate(-3.056 0.265) scale(0.047 0.47)" xlink:href="#radial-gradient-16"/>
    <radialGradient id="radial-gradient-29" r="7.297" gradientTransform="translate(-3.962 0.265) scale(0.049 0.47)" xlink:href="#radial-gradient-16"/>
    <radialGradient id="radial-gradient-30" r="9.577" gradientTransform="translate(-6.169 0.265) scale(0.037 0.47)" xlink:href="#radial-gradient-16"/>
    <radialGradient id="radial-gradient-31" r="6.052" gradientTransform="translate(-11.533 0.265) scale(0.059 0.47)" xlink:href="#radial-gradient-16"/>
    <radialGradient id="radial-gradient-32" r="3.411" gradientTransform="translate(-0.366 0.265) scale(0.106 0.47)" xlink:href="#radial-gradient-16"/>
    <radialGradient id="radial-gradient-33" r="3.457" gradientTransform="translate(-0.421 0.265) scale(0.105 0.47)" xlink:href="#radial-gradient-16"/>
    <radialGradient id="radial-gradient-34" r="3.434" gradientTransform="translate(-0.476 0.265) scale(0.106 0.47)" xlink:href="#radial-gradient-16"/>
    <radialGradient id="radial-gradient-35" r="3.441" gradientTransform="translate(-0.552 0.265) scale(0.105 0.47)" xlink:href="#radial-gradient-16"/>
    <radialGradient id="radial-gradient-36" r="3.593" gradientTransform="translate(-0.606 0.265) scale(0.101 0.47)" xlink:href="#radial-gradient-16"/>
    <radialGradient id="radial-gradient-37" r="3.58" gradientTransform="translate(-0.695 0.265) scale(0.101 0.47)" xlink:href="#radial-gradient-16"/>
    <radialGradient id="radial-gradient-38" r="3.535" gradientTransform="translate(-0.804 0.265) scale(0.102 0.47)" xlink:href="#radial-gradient-16"/>
    <radialGradient id="radial-gradient-39" r="3.338" gradientTransform="translate(-0.934 0.265) scale(0.109 0.47)" xlink:href="#radial-gradient-16"/>
    <radialGradient id="radial-gradient-40" r="3.147" gradientTransform="translate(-1.115 0.265) scale(0.116 0.47)" xlink:href="#radial-gradient-16"/>
    <radialGradient id="radial-gradient-41" r="2.869" gradientTransform="translate(-1.661 0.265) scale(0.128 0.47)" xlink:href="#radial-gradient-16"/>
    <radialGradient id="radial-gradient-42" r="2.56" gradientTransform="translate(-2.714 0.265) scale(0.144 0.47)" xlink:href="#radial-gradient-16"/>
    <radialGradient id="radial-gradient-43" r="2.8" gradientTransform="translate(-6.934 0.265) scale(0.131 0.47)" xlink:href="#radial-gradient-16"/>
    <radialGradient id="radial-gradient-44" r="2.144" gradientTransform="translate(0.061 0.265) scale(0.176 0.47)" xlink:href="#radial-gradient-16"/>
    <radialGradient id="radial-gradient-45" r="2.219" gradientTransform="translate(0.041 0.265) scale(0.169 0.47)" xlink:href="#radial-gradient-16"/>
    <radialGradient id="radial-gradient-46" r="2.288" gradientTransform="translate(-0.007 0.265) scale(0.164 0.47)" xlink:href="#radial-gradient-16"/>
    <radialGradient id="radial-gradient-47" r="2.423" gradientTransform="translate(-0.07 0.265) scale(0.154 0.47)" xlink:href="#radial-gradient-16"/>
    <radialGradient id="radial-gradient-48" r="2.593" gradientTransform="translate(-0.138 0.265) scale(0.142 0.47)" xlink:href="#radial-gradient-16"/>
    <radialGradient id="radial-gradient-49" r="2.72" gradientTransform="translate(-0.223 0.265) scale(0.135 0.47)" xlink:href="#radial-gradient-16"/>
    <radialGradient id="radial-gradient-50" r="2.938" gradientTransform="translate(-0.337 0.265) scale(0.124 0.47)" xlink:href="#radial-gradient-16"/>
    <radialGradient id="radial-gradient-51" r="3.323" gradientTransform="translate(-0.478 0.265) scale(0.109 0.47)" xlink:href="#radial-gradient-16"/>
    <radialGradient id="radial-gradient-52" r="3.747" gradientTransform="translate(-0.659 0.265) scale(0.096 0.47)" xlink:href="#radial-gradient-16"/>
    <radialGradient id="radial-gradient-53" r="4.028" gradientTransform="translate(-0.985 0.265) scale(0.089 0.47)" xlink:href="#radial-gradient-16"/>
    <radialGradient id="radial-gradient-54" r="4.055" gradientTransform="translate(-1.573 0.265) scale(0.089 0.47)" xlink:href="#radial-gradient-16"/>
    <radialGradient id="radial-gradient-55" r="4.462" gradientTransform="translate(-2.891 0.265) scale(0.08 0.47)" xlink:href="#radial-gradient-16"/>
    <radialGradient id="radial-gradient-56" r="4.998" gradientTransform="translate(-5.997 0.265) scale(0.072 0.47)" xlink:href="#radial-gradient-16"/>
    <radialGradient id="radial-gradient-57" r="1.975" gradientTransform="translate(0.163 0.265) scale(0.194 0.47)" xlink:href="#radial-gradient-16"/>
    <radialGradient id="radial-gradient-58" r="1.959" gradientTransform="translate(0.159 0.265) scale(0.195 0.47)" xlink:href="#radial-gradient-16"/>
    <radialGradient id="radial-gradient-59" r="1.926" gradientTransform="translate(0.154 0.265) scale(0.199 0.47)" xlink:href="#radial-gradient-16"/>
    <radialGradient id="radial-gradient-60" r="1.848" gradientTransform="translate(0.153 0.265) scale(0.209 0.47)" xlink:href="#radial-gradient-16"/>
    <radialGradient id="radial-gradient-61" r="1.778" gradientTransform="translate(0.146 0.265) scale(0.219 0.47)" xlink:href="#radial-gradient-16"/>
    <radialGradient id="radial-gradient-62" r="1.685" gradientTransform="translate(0.139 0.265) scale(0.235 0.47)" xlink:href="#radial-gradient-16"/>
    <radialGradient id="radial-gradient-63" r="1.555" gradientTransform="translate(0.128 0.265) scale(0.26 0.47)" xlink:href="#radial-gradient-16"/>
    <radialGradient id="radial-gradient-64" r="1.446" gradientTransform="translate(0.115 0.265) scale(0.286 0.47)" xlink:href="#radial-gradient-16"/>
    <radialGradient id="radial-gradient-65" r="1.357" gradientTransform="translate(0.099 0.265) scale(0.313 0.47)" xlink:href="#radial-gradient-16"/>
    <radialGradient id="radial-gradient-66" r="1.312" gradientTransform="translate(0.077 0.265) scale(0.329 0.47)" xlink:href="#radial-gradient-16"/>
    <radialGradient id="radial-gradient-67" r="1.294" gradientTransform="translate(0.038 0.265) scale(0.336 0.47)" xlink:href="#radial-gradient-16"/>
    <radialGradient id="radial-gradient-68" r="1.266" gradientTransform="translate(-0.055 0.265) scale(0.347 0.47)" xlink:href="#radial-gradient-16"/>
    <radialGradient id="radial-gradient-69" r="1.255" gradientTransform="translate(-0.26 0.265) scale(0.352 0.47)" xlink:href="#radial-gradient-16"/>
    <radialGradient id="radial-gradient-70" r="1.258" gradientTransform="translate(-0.697 0.265) scale(0.35 0.47)" xlink:href="#radial-gradient-16"/>
    <radialGradient id="radial-gradient-71" r="2.463" gradientTransform="translate(-0.845 0.265) scale(0.151 0.47)" xlink:href="#radial-gradient-16"/>
    <radialGradient id="radial-gradient-72" r="2.385" gradientTransform="translate(-0.993 0.265) scale(0.156 0.47)" xlink:href="#radial-gradient-16"/>
    <radialGradient id="radial-gradient-73" r="2.313" gradientTransform="translate(-1.226 0.265) scale(0.162 0.47)" xlink:href="#radial-gradient-16"/>
    <radialGradient id="radial-gradient-74" r="2.078" gradientTransform="translate(-1.677 0.265) scale(0.183 0.47)" xlink:href="#radial-gradient-16"/>
    <radialGradient id="radial-gradient-75" r="1.653" gradientTransform="translate(-2.556 0.265) scale(0.24 0.47)" xlink:href="#radial-gradient-16"/>
    <radialGradient id="radial-gradient-76" r="1.338" gradientTransform="translate(-4.946 0.265) scale(0.32 0.47)" xlink:href="#radial-gradient-16"/>
    <radialGradient id="radial-gradient-77" r="3.5" gradientTransform="translate(-0.416 0.265) scale(0.103 0.47)" xlink:href="#radial-gradient-16"/>
    <radialGradient id="radial-gradient-78" r="3.887" gradientTransform="translate(-0.504 0.265) scale(0.093 0.47)" xlink:href="#radial-gradient-16"/>
    <radialGradient id="radial-gradient-79" r="4.578" gradientTransform="translate(-0.621 0.265) scale(0.078 0.47)" xlink:href="#radial-gradient-16"/>
    <radialGradient id="radial-gradient-80" r="5.589" gradientTransform="translate(-0.799 0.265) scale(0.064 0.47)" xlink:href="#radial-gradient-16"/>
    <radialGradient id="radial-gradient-81" r="6.06" gradientTransform="translate(-1.02 0.265) scale(0.059 0.47)" xlink:href="#radial-gradient-16"/>
    <radialGradient id="radial-gradient-82" r="7.175" gradientTransform="translate(-1.277 0.265) scale(0.05 0.47)" xlink:href="#radial-gradient-16"/>
    <radialGradient id="radial-gradient-83" r="9.631" gradientTransform="translate(-1.568 0.265) scale(0.037 0.47)" xlink:href="#radial-gradient-16"/>
    <radialGradient id="radial-gradient-84" r="11.481" gradientTransform="translate(-2.018 0.265) scale(0.031 0.47)" xlink:href="#radial-gradient-16"/>
    <radialGradient id="radial-gradient-85" r="18.415" gradientTransform="translate(-2.568 0.265) scale(0.019 0.47)" xlink:href="#radial-gradient-16"/>
    <radialGradient id="radial-gradient-86" r="2.608" gradientTransform="translate(-0.128 0.265) scale(0.142 0.47)" xlink:href="#radial-gradient-16"/>
    <radialGradient id="radial-gradient-87" r="2.713" gradientTransform="translate(-0.194 0.265) scale(0.136 0.47)" xlink:href="#radial-gradient-16"/>
    <radialGradient id="radial-gradient-88" r="3.1" gradientTransform="translate(-0.337 0.265) scale(0.118 0.47)" xlink:href="#radial-gradient-16"/>
    <radialGradient id="radial-gradient-89" r="3.547" gradientTransform="translate(-0.585 0.265) scale(0.102 0.47)" xlink:href="#radial-gradient-16"/>
    <radialGradient id="radial-gradient-90" r="3.954" gradientTransform="translate(-1.059 0.265) scale(0.091 0.47)" xlink:href="#radial-gradient-16"/>
    <radialGradient id="radial-gradient-91" r="4.495" gradientTransform="translate(-2.618 0.265) scale(0.08 0.47)" xlink:href="#radial-gradient-16"/>
    <radialGradient id="radial-gradient-92" r="2.415" gradientTransform="translate(0.147 0.265) scale(0.154 0.47)" xlink:href="#radial-gradient-16"/>
    <radialGradient id="radial-gradient-93" r="2.41" gradientTransform="translate(0.145 0.265) scale(0.154 0.47)" xlink:href="#radial-gradient-16"/>
    <radialGradient id="radial-gradient-94" r="2.242" gradientTransform="translate(0.148 0.265) scale(0.167 0.47)" xlink:href="#radial-gradient-16"/>
    <radialGradient id="radial-gradient-95" r="2.058" gradientTransform="translate(0.15 0.265) scale(0.185 0.47)" xlink:href="#radial-gradient-16"/>
    <radialGradient id="radial-gradient-96" r="1.929" gradientTransform="translate(0.146 0.265) scale(0.199 0.47)" xlink:href="#radial-gradient-16"/>
    <radialGradient id="radial-gradient-97" r="1.775" gradientTransform="translate(0.135 0.265) scale(0.22 0.47)" xlink:href="#radial-gradient-16"/>
    <radialGradient id="radial-gradient-98" r="1.621" gradientTransform="translate(0.119 0.265) scale(0.246 0.47)" xlink:href="#radial-gradient-16"/>
    <radialGradient id="radial-gradient-99" r="1.515" gradientTransform="translate(0.097 0.265) scale(0.269 0.47)" xlink:href="#radial-gradient-16"/>
    <radialGradient id="radial-gradient-100" r="1.4" gradientTransform="translate(0.064 0.265) scale(0.299 0.47)" xlink:href="#radial-gradient-16"/>
    <radialGradient id="radial-gradient-101" r="1.328" gradientTransform="translate(0.039 0.265) scale(0.323 0.47)" xlink:href="#radial-gradient-16"/>
    <radialGradient id="radial-gradient-102" r="1.263" gradientTransform="translate(0.02 0.265) scale(0.348 0.47)" xlink:href="#radial-gradient-16"/>
    <radialGradient id="radial-gradient-103" r="1.291" gradientTransform="translate(-0.203 0.265) scale(0.337 0.47)" xlink:href="#radial-gradient-16"/>
    <radialGradient id="radial-gradient-104" r="1.347" gradientTransform="translate(-0.704 0.265) scale(0.316 0.47)" xlink:href="#radial-gradient-16"/>
  </defs>
  <g id="wave01" transform="translate(-6604 1027)" clip-path="url(#clip-path)">
    <g id="Group_136" data-name="Group 136" transform="translate(7490.526 -4497.352)" opacity="0.355">
      <g id="Group_113" data-name="Group 113">
        <path id="Path_385" data-name="Path 385" d="M-1001.448,3738.486c57.3-5.925,111.275-18.675,163.778-31.03,53.619-12.618,107.064-25.342,163.9-34.14a1452.641,1452.641,0,0,1,172.311-16.1,1390.573,1390.573,0,0,1,175.114,4.887c28.973,2.7,57.573,6.362,85.495,11.026,25,4.175,51.97,8.754,71.385,17.934a63.8,63.8,0,0,1,11.8,7.107c.422.327.755-.648.43-.9-13.974-10.812-38-16.769-61.567-21.257-26.692-5.082-54.239-9.139-82.118-12.31a1359.452,1359.452,0,0,0-175.236-8.156,1461.233,1461.233,0,0,0-174.723,13.385c-56.974,7.853-110.7,19.558-163.919,32.121-53.723,12.68-107.483,25.731-164.88,33.961q-10.86,1.557-21.795,2.991c-.316.041-.255.507.024.478Z" fill="url(#radial-gradient)"/>
        <path id="Path_386" data-name="Path 386" d="M-918.82,3729.655q75.447-15.491,150.685-31.224c24.55-5.106,49-10.375,74.012-14.917,25.071-4.552,50.793-8.081,76.973-10.71,48.232-4.842,97.781-7.267,146.949-8.143,45.939-.818,92.206.11,137.516,4.1,44.846,3.954,88.754,11.021,128.306,22.26q7.359,2.091,14.493,4.365c.454.144.648-.7.17-.847-37.969-12.044-80.546-20.06-124.58-24.816-45.266-4.889-91.822-6.463-138.088-6.119-48.93.363-98.2,2.53-146.4,6.7-25.721,2.224-51.209,5.169-76.044,9.158-25.231,4.054-49.674,9.175-74.093,14.265q-75.66,15.771-151.283,31.593-9.364,1.982-18.729,3.961c-.223.047-.151.427.117.372Z" fill="url(#radial-gradient)"/>
        <path id="Path_387" data-name="Path 387" d="M-936.132,3738.314c43.917-9.606,87.647-19.335,132.469-27.9,44.911-8.581,90.608-16.21,137.167-22.332,46.81-6.155,94.487-10.761,142.686-13.281,48.523-2.537,97.567-2.981,146.173-.723,23.995,1.114,47.873,2.882,71.441,5.368,22.542,2.378,45,5.483,65.623,10.646q7.572,1.9,14.711,4.163c.472.15.673-.723.176-.88-19.007-6.016-40.312-9.887-62.094-12.687-23.086-2.968-46.732-5-70.4-6.454a1438.212,1438.212,0,0,0-146.742-1.2c-48.866,2-97.3,6.229-144.841,12.1-46.38,5.726-91.93,13-136.675,21.277-45.221,8.366-89.622,17.761-133.49,27.709q-8.207,1.86-16.329,3.8c-.227.055-.152.448.122.388Z" fill="url(#radial-gradient)"/>
        <path id="Path_388" data-name="Path 388" d="M-941.8,3750.263c19.758-5.346,39.341-10.815,59.441-15.852q29.953-7.506,60.751-14.161c41.516-8.96,84.157-16.679,127.7-22.9,42.789-6.119,86.473-10.781,130.632-13.741,44.282-2.968,89.077-4.2,133.751-3.475,45.935.74,92.656,3.26,135.82,11.445q7.909,1.5,15.6,3.252c.575.131.713-.781.181-.9-41.724-9.459-87.67-13.01-133.212-14.3-45.079-1.273-90.359-.5-135.2,2.074-44.659,2.563-88.84,6.9-132.206,12.723q-64.821,8.709-126.886,21.626-62.82,12.975-122.134,29.621-7.26,2.028-14.37,4.169c-.233.071-.144.5.131.421Z" fill="url(#radial-gradient)"/>
        <path id="Path_389" data-name="Path 389" d="M-939.6,3762.152a1074.663,1074.663,0,0,1,109.638-31.061c38.755-8.814,79-16,119.971-21.89,40.932-5.879,82.609-10.464,124.6-14.085,42.241-3.643,85.052-6.758,127.906-7.9,43.262-1.154,87.743.118,128.542,7.844q7.388,1.4,14.541,3.069c.562.13.7-.77.178-.892-39.139-9.09-82.709-11.682-125.6-11.269-43.4.418-86.793,3.457-129.579,6.9-42.265,3.4-84.246,7.733-125.542,13.329-40.926,5.547-81.189,12.338-120.1,20.7a1054.809,1054.809,0,0,0-111.5,30.025q-6.714,2.238-13.259,4.59c-.342.123-.164.763.2.639Z" fill="url(#radial-gradient)"/>
        <path id="Path_390" data-name="Path 390" d="M-941.011,3773.329c29.172-12.5,61.767-22.478,96.524-30.77,36.2-8.636,73.84-15.891,112.089-22,38.957-6.226,78.754-11.189,119.029-14.864,40.138-3.663,80.763-6.039,121.53-7.091,40.424-1.043,82.385-1.682,121.973,3.139q7.858.957,15.532,2.232a.452.452,0,0,0,.516-.357.452.452,0,0,0-.339-.528c-38.94-6.438-80.8-6.447-121.414-5.751-41.161.705-82.225,2.762-122.837,6.133-40.437,3.358-80.42,8.022-119.615,13.956-38.768,5.869-76.828,12.949-113.676,21.295-35.24,7.981-69.709,17.347-99.453,29.705-3.456,1.436-6.784,2.943-10.056,4.478-.193.091-.023.524.2.429Z" fill="url(#radial-gradient)"/>
        <path id="Path_391" data-name="Path 391" d="M-949.811,3785.392c13.893-5.471,27.638-10.993,42.165-16.062q21.816-7.613,44.958-14.244c31.009-8.893,63.548-16.465,97.13-22.7,34.882-6.473,70.85-11.489,107.39-15.119,39.143-3.888,78.909-6.208,118.794-7.111,39.94-.905,80-.4,119.817,1.361q7.529.331,15.044.723c.586.031.631-.977-.05-1.012-39.934-2.066-80.132-2.912-120.276-2.343-40.088.567-80.118,2.534-119.574,6.086-36.777,3.311-73.042,8-108.285,14.146-33.839,5.9-66.729,13.132-98.121,21.7a789.176,789.176,0,0,0-88.84,29.733c-3.52,1.43-6.928,2.913-10.277,4.439-.183.084-.093.48.125.394Z" fill="url(#radial-gradient)"/>
        <path id="Path_392" data-name="Path 392" d="M-943.132,3789a853.236,853.236,0,0,1,83.933-27.695c29.414-8.019,60.195-14.823,91.855-20.4,32.114-5.655,65.138-10.045,98.639-13.2,33.244-3.127,66.964-5.033,100.779-5.737s67.718-.2,101.375,1.512q6.35.324,12.686.7c.58.035.631-.943-.05-.984-33.847-2.023-67.982-2.834-102.068-2.411-33.977.421-67.891,2.062-101.375,4.933-33.178,2.844-65.931,6.9-97.857,12.171-32.027,5.292-63.224,11.817-93.079,19.6a770.283,770.283,0,0,0-85.023,27.082q-5.032,1.962-9.951,3.993c-.22.091-.1.516.136.426Z" fill="url(#radial-gradient)"/>
        <path id="Path_393" data-name="Path 393" d="M-933.1,3792.045c25.134-8.3,50.4-16.428,76.831-23.712,26.371-7.267,53.563-13.828,81.554-19.45,28.535-5.732,57.9-10.487,87.891-14,30.7-3.593,62.029-5.919,93.554-6.723a904.1,904.1,0,0,1,94.123,2.375q5.756.455,11.484.99c.6.055.691-.972-.052-1.041a889.077,889.077,0,0,0-94.375-3.554c-31.542.45-62.97,2.446-93.8,5.747-30.116,3.225-59.643,7.725-88.353,13.228-28.177,5.4-55.574,11.767-82.129,18.878q-40.08,10.734-77.716,23.527-4.634,1.572-9.192,3.192c-.3.106-.158.651.175.541Z" fill="url(#radial-gradient)"/>
        <path id="Path_394" data-name="Path 394" d="M-899.652,3787.911c11.838-2.9,23.382-6.112,35.122-9.113q17.817-4.554,35.882-8.872c23.852-5.68,48.1-10.969,72.852-15.634,25.174-4.746,50.864-8.857,77.039-12.049,26.046-3.176,52.565-5.458,79.309-6.595,26.772-1.137,53.768-1.112,80.493.315q4.949.264,9.88.593c.605.04.66-.948-.05-1-26.648-1.772-53.626-2.123-80.451-1.27-27.024.86-53.866,2.922-80.242,5.92-25.932,2.948-51.415,6.809-76.375,11.345-24.984,4.539-49.456,9.74-73.505,15.364-24.208,5.661-47.991,11.753-71.49,18.093-2.9.783-5.778,1.579-8.619,2.417a.253.253,0,0,0-.152.314.253.253,0,0,0,.307.167Z" fill="url(#radial-gradient)"/>
        <path id="Path_395" data-name="Path 395" d="M-876.739,3786.94c20.232-5.46,40.618-10.765,61.567-15.536q31.547-7.185,64.318-12.963,32.775-5.752,66.628-9.843,33.705-4.033,68.186-6.176c24.192-1.468,48.866-2.251,73.066-.4q4.535.346,9.023.822c.508.053.6-.837-.045-.9-24.172-2.526-49.075-2.167-73.511-.874-23.1,1.223-46.033,3.177-68.663,5.746q-33.719,3.83-66.465,9.439-32.884,5.584-64.578,12.7-31.7,7.072-62.144,15.4c-2.53.692-5.029,1.412-7.53,2.13a.239.239,0,0,0-.134.295.239.239,0,0,0,.282.158Z" fill="url(#radial-gradient)"/>
        <path id="Path_396" data-name="Path 396" d="M-854.691,3787.521c18.672-4.115,37.171-8.421,55.775-12.61,17.968-4.045,36.1-7.9,54.7-11.184q27.3-4.821,55.524-8.211,28.1-3.377,56.817-5.314,14.2-.951,28.488-1.54c9.272-.38,18.957-.973,28.214-.263,2.385.182,4.765.468,7.062.832a.394.394,0,0,0,.469-.3.394.394,0,0,0-.3-.469c-8.591-1.779-18.409-1.326-27.477-1.014q-14.431.5-28.8,1.361c-19.234,1.16-38.344,2.82-57.224,4.966q-28.116,3.2-55.449,7.837c-18.751,3.179-37.041,6.918-55.087,10.959q-28.055,6.281-55.917,12.781-3.491.81-6.974,1.629c-.322.076-.213.626.172.541Z" fill="url(#radial-gradient)"/>
        <path id="Path_397" data-name="Path 397" d="M-825.3,3787.115c7.225-1.616,14.246-3.47,21.377-5.187q10.766-2.591,21.682-5.029,21.933-4.891,44.516-9.033,22.545-4.1,45.757-7.225,23.046-3.063,46.665-4.931c15.654-1.214,31.459-1.972,47.3-2.2,1.971-.028,3.939-.056,5.909-.1a.453.453,0,0,0,.421-.231.453.453,0,0,0-.024-.48.453.453,0,0,0-.442-.188c-7.99-.079-16.04.2-24,.513q-11.838.468-23.6,1.3-23.64,1.672-46.771,4.683-23.17,2.976-45.7,7.022-22.66,4.031-44.646,8.908c-14.655,3.225-29.174,6.641-43.347,10.354-1.763.461-3.505.933-5.223,1.434a.2.2,0,0,0-.132.256.2.2,0,0,0,.256.132Z" fill="url(#radial-gradient)"/>
        <path id="Path_398" data-name="Path 398" d="M-804.012,3788.229c11.434-2.732,22.746-5.586,34.244-8.255,11.544-2.68,23.212-5.231,35.063-7.567,11.91-2.347,24-4.483,36.28-6.315,12.075-1.8,24.336-3.311,36.747-4.44s24.958-1.886,37.564-2.179c1.568-.036,3.124-.076,4.687-.145a.421.421,0,0,0,.4-.441.421.421,0,0,0-.442-.4c-6.316-.093-12.741.245-19.019.562q-9.445.477-18.812,1.273c-12.493,1.061-24.842,2.518-37,4.278s-24.152,3.823-35.955,6.1c-11.94,2.308-23.7,4.839-35.31,7.518q-8.718,2.012-17.328,4.132c-5.734,1.407-11.492,2.818-17.093,4.35l-4.147,1.136a.2.2,0,0,0-.132.255.2.2,0,0,0,.255.132Z" fill="url(#radial-gradient)"/>
        <path id="Path_399" data-name="Path 399" d="M-756.516,3781.76c5.876-1.457,11.728-2.94,17.722-4.279q8.946-2,18.2-3.642c12.446-2.212,25.255-3.933,38.259-5.141q5.484-.509,11.01-.9,2.721-.192,5.451-.355c1.874-.111,3.789-.159,5.629-.368a.364.364,0,0,0,.321-.193.365.365,0,0,0-.019-.375.365.365,0,0,0-.339-.16c-1.663-.026-3.323.1-4.973.2s-3.307.2-4.957.318q-4.953.342-9.871.788-9.756.882-19.347,2.148c-12.7,1.675-25.134,3.848-37.136,6.49-6.87,1.512-13.648,3.146-20.067,5.082a.2.2,0,0,0-.13.253.2.2,0,0,0,.253.13Z" fill="url(#radial-gradient)"/>
      </g>
      <g id="Group_114" data-name="Group 114">
        <path id="Path_400" data-name="Path 400" d="M-165.8,3693.89c18.806-4.151,37.317-8.618,56.177-12.716q28.044-6.093,56.7-11.475c38.658-7.187,78.359-12.933,118.858-17,39.847-4,80.348-6.434,120.984-7.259,39.981-.813,80.264-.172,119.983,2.281,37.19,2.3,74.611,6.575,107.526,15.683q5.973,1.653,11.7,3.51c.508.164.744-.833.191-1.012-31.237-10.087-67.619-15.3-104.245-18.147-39.426-3.062-79.738-3.971-119.609-3.555-41.034.429-82,2.491-122.356,6.163-40.119,3.649-79.577,8.914-117.988,15.675-38.885,6.844-76.684,15.1-113.9,23.889-4.76,1.124-9.489,2.265-14.175,3.463a.264.264,0,0,0-.142.319.264.264,0,0,0,.3.181Z" fill="url(#radial-gradient-16)"/>
        <path id="Path_401" data-name="Path 401" d="M-157.222,3696.694c37.526-6.5,74.628-13.559,112.314-19.845,38.153-6.364,76.732-12.17,115.925-16.785,38.709-4.558,78.032-7.97,117.712-9.63,38.038-1.591,76.736-1.754,114.638.72,34.129,2.227,68.271,6.9,97.395,16.176q5.359,1.707,10.44,3.609c.395.148.629-.707.165-.88-27.49-10.237-60.626-15.872-94.332-18.755-37.156-3.178-75.445-3.427-113.006-2.274-40.107,1.232-79.918,4.332-119.1,8.666-38.858,4.3-77.118,9.814-114.924,15.956-38.148,6.2-75.877,13.011-113.462,19.984q-6.966,1.293-13.9,2.626c-.252.049-.184.487.133.432Z" fill="url(#radial-gradient-17)"/>
        <path id="Path_402" data-name="Path 402" d="M-141.452,3699.8c35.863-5.015,71-11.4,106.334-17.226,35.959-5.935,72.079-11.678,108.77-16.429,35.583-4.608,71.714-8.255,108.319-10.207a984.164,984.164,0,0,1,109.23-.129c17.941,1.044,35.749,2.68,53.2,4.983,15.845,2.092,32.71,4.415,46.154,9.226a60.1,60.1,0,0,1,9.06,4.059c.489.274.717-.6.366-.8-10.471-5.852-25.424-8.861-40.2-11.178-17.111-2.683-34.653-4.692-52.384-6.09a928.974,928.974,0,0,0-109.479-1.7c-36.88,1.468-73.377,4.753-109.268,9.123-36.562,4.451-72.53,9.99-108.263,15.826-36.546,5.968-72.882,12.245-109.524,18.071-4.147.659-8.271,1.349-12.393,2.044-.237.04-.15.461.074.43Z" fill="url(#radial-gradient-18)"/>
        <path id="Path_403" data-name="Path 403" d="M-115.933,3703.911c16.312-3.227,32.492-6.606,48.927-9.683q25.3-4.738,51.06-8.86,50.482-8.055,102.425-13.617,51.63-5.526,104.207-8.512c32.158-1.823,64.683-2.84,97.019-1.622,32.145,1.21,64.25,4.728,93.006,12.074q5.287,1.35,10.393,2.863c.5.147.7-.781.176-.935-27.393-8.065-58.432-12.444-89.993-14.3-32.421-1.9-65.275-1.3-97.691.3-34.984,1.73-69.8,4.433-104.236,7.919q-52.46,5.317-103.66,13.2c-33.791,5.2-67.184,11.166-99.658,18.116-4.064.87-8.079,1.79-12.077,2.731-.184.043-.131.373.1.328Z" fill="url(#radial-gradient-19)"/>
        <path id="Path_404" data-name="Path 404" d="M-87.593,3704.632c14.542-2.208,28.726-5.064,43.122-7.5q22.434-3.8,45.126-7.228,44.8-6.741,90.62-11.682,45.466-4.826,91.769-7.385c31.269-1.681,62.994-2.686,94.453-2.093a527.067,527.067,0,0,1,91.322,9.361q5.191,1.023,10.29,2.151c.564.124.7-.8.173-.919a506.857,506.857,0,0,0-88.431-11.152c-31.731-1.253-63.994-.361-95.637,1.1-31.022,1.434-61.853,3.778-92.375,6.851q-46.122,4.642-91.261,11.324-44.579,6.519-88.172,14.57c-3.743.69-7.423,1.4-11.068,2.21-.206.046-.138.428.069.4Z" fill="url(#radial-gradient-20)"/>
        <path id="Path_405" data-name="Path 405" d="M-62.695,3707.161c6.561-.883,12.885-2.126,19.291-3.253q10.014-1.763,20.085-3.445,20.5-3.422,41.232-6.48,40.56-5.964,82.045-10.236c27.677-2.8,55.644-4.928,83.782-6.22,27.987-1.284,56.144-1.751,84.237-1.228,28.433.529,57,2.124,84.32,6.176q4.973.738,9.873,1.585c.639.11.728-.852.182-.946-26.638-4.594-54.727-6.673-82.823-7.5-28.2-.831-56.545-.581-84.7.511-28.3,1.1-56.45,3.064-84.313,5.727-27.97,2.673-55.655,6.047-83.012,9.959q-40.743,5.826-80.542,13.112c-3.315.6-6.517,1.248-9.7,2-.12.028-.091.258.041.24Z" fill="url(#radial-gradient-21)"/>
        <path id="Path_406" data-name="Path 406" d="M-39.3,3709.436c12.656-1.76,25.129-3.854,37.739-5.7q18.95-2.767,38.056-5.268,38.03-4.953,76.586-8.86c25.036-2.537,50.241-4.725,75.636-6.188,25.134-1.449,50.482-2.19,75.788-1.775a690.3,690.3,0,0,1,74.871,5.067c3.037.384,6.039.843,9.085,1.207l-.219-.768a4.256,4.256,0,0,1-2.829.625c-.348-.023-.344.565.03.615a4.81,4.81,0,0,0,3.2-.529c.208-.128.3-.685-.123-.755-5.838-.963-11.962-1.626-17.965-2.291q-9.144-1.014-18.4-1.759c-12.442-1.007-25-1.657-37.589-2.01-25.486-.715-51.072-.214-76.452,1.065-25.418,1.28-50.648,3.339-75.695,5.8q-38.674,3.806-76.847,8.727c-25.628,3.3-51.112,6.905-76.3,10.949-2.9.466-5.775.951-8.634,1.478-.192.036-.122.389.062.363Z" fill="url(#radial-gradient-22)"/>
        <path id="Path_407" data-name="Path 407" d="M-11.984,3710.485c21.861-3.237,43.727-6.373,65.947-8.971q33.148-3.876,66.82-6.526,33.809-2.667,67.957-4.09,33.957-1.41,68.064-1.572c22.517-.108,45.443-.124,67.529,2.3,2.741.3,5.468.639,8.181,1,.362.047.462-.727.05-.789-21.428-3.207-44.369-3.386-66.584-3.39q-34.244,0-68.42,1.275-34.146,1.277-68.033,3.811-33.859,2.533-67.264,6.329-33.376,3.786-66.11,8.814-4.1.631-8.162,1.306c-.322.054-.224.543.025.506Z" fill="url(#radial-gradient-23)"/>
        <path id="Path_408" data-name="Path 408" d="M4.422,3713.15c19.4-2.983,38.75-5.945,58.5-8.344q29.589-3.594,59.717-5.959,30.24-2.377,60.815-3.524c20.437-.768,40.973-1.158,61.471-1.019a597.234,597.234,0,0,1,62.008,3.377q3.784.422,7.541.9c.413.052.547-.818-.045-.892a565.375,565.375,0,0,0-61.9-4.172c-20.579-.314-41.237.022-61.773.7q-30.565,1.008-60.881,3.284-30.139,2.262-59.832,5.741-29.8,3.487-58.944,8.2-3.4.55-6.772,1.149c-.3.055-.176.6.1.564Z" fill="url(#radial-gradient-24)"/>
        <path id="Path_409" data-name="Path 409" d="M23.19,3715.16c8.706-1.113,17.325-2.4,26.014-3.544q13.179-1.74,26.459-3.285c17.625-2.039,35.4-3.77,53.314-5.07q26.9-1.952,54.1-2.67,27.154-.72,54.369-.191,27.173.528,54.166,2.307,3.321.219,6.634.458c.455.032.521-.813-.043-.854q-26.912-1.926-54.108-2.613-27.027-.678-54.1-.119-27.174.561-54.154,2.385c-17.862,1.21-35.591,2.852-53.169,4.822q-26.49,2.97-52.569,6.77c-2.322.336-4.634.679-6.933,1.052-.347.056-.267.589.028.552Z" fill="url(#radial-gradient-25)"/>
        <path id="Path_410" data-name="Path 410" d="M46.231,3717.555c15.135-2.132,30.239-4.207,45.655-5.8s30.943-2.873,46.538-3.928c15.687-1.062,31.438-1.89,47.212-2.57,15.521-.669,31.091-1.2,46.681-1.126a419.256,419.256,0,0,1,46.079,2.5c1.892.219,3.778.454,5.66.693.413.053.516-.785.058-.85a366.047,366.047,0,0,0-45.761-3.159c-15.654-.223-31.311.23-46.9.879q-23.64.984-47.177,2.5-23.541,1.547-46.836,3.866c-15.483,1.569-30.879,3.408-46,5.687q-2.658.4-5.287.841c-.253.042-.154.507.08.474Z" fill="url(#radial-gradient-26)"/>
        <path id="Path_411" data-name="Path 411" d="M67.47,3719.742c6.626-.477,13.185-1.257,19.763-1.877q10-.943,20.025-1.81,19.86-1.707,39.838-3.062,20.067-1.356,40.226-2.357c13.069-.648,26.176-1.186,39.318-1.246a387.4,387.4,0,0,1,39.194,1.61c1.59.155,3.129.293,4.744.368.352.016.331-.546.041-.6-3.033-.547-6.228-.793-9.409-1.052s-6.389-.473-9.6-.642c-6.562-.345-13.16-.511-19.758-.544-13.205-.067-26.4.392-39.532,1.018q-20.1.958-40.12,2.318-20.082,1.341-40.061,3.03c-13.313,1.126-26.617,2.333-39.815,3.752-1.641.176-3.262.363-4.879.586-.314.043-.283.528.025.506Z" fill="url(#radial-gradient-27)"/>
        <path id="Path_412" data-name="Path 412" d="M90.466,3722.333c5.473-.294,10.9-.858,16.334-1.3q8.179-.671,16.375-1.295,16.215-1.232,32.5-2.21c21.659-1.292,43.453-2.153,65.277-2.269q9.261-.05,18.52.089,4.541.069,9.078.189c3.137.082,6.294.264,9.433.212.435-.007.388-.661-.035-.7-2.748-.252-5.564-.286-8.353-.361q-4.083-.111-8.169-.179-8.257-.141-16.523-.124-16.349.029-32.67.594c-21.821.732-43.533,2.108-65.128,3.791q-9.192.716-18.36,1.5c-6.1.519-12.295.943-18.3,1.679a.194.194,0,0,0,.019.387Z" fill="url(#radial-gradient-28)"/>
        <path id="Path_413" data-name="Path 413" d="M110.144,3725.24c9.625-.615,19.192-1.465,28.809-2.121s19.279-1.225,28.949-1.706q14.417-.719,28.876-1.192c9.512-.318,19.111-.7,28.651-.616,2.654.021,5.307.095,7.943.249q2.016.119,4.011.3a18.679,18.679,0,0,1,3.634.533,3.564,3.564,0,0,0,2.2.177c.543-.187.7-.594.527-.893a1.041,1.041,0,0,0-1.029-.337c-.549.067-.6.376-.51.607a.272.272,0,1,0,.517-.168c.009.076.017.151.026.227a.9.9,0,0,1,.221.018c.239.143.839-.056-.082-.243-.252-.051-.673.022-.976-.036-.386-.073-.716-.22-1.071-.32a9.094,9.094,0,0,0-1.424-.234c-2.062-.24-4.155-.413-6.259-.533-4.344-.248-8.73-.268-13.1-.209-8.871.12-17.745.423-26.593.747q-26.815.984-53.46,2.885c-9.976.7-20.044,1.379-29.879,2.467a.2.2,0,0,0,.02.393Z" fill="url(#radial-gradient-29)"/>
        <path id="Path_414" data-name="Path 414" d="M135.858,3727.353c6.142-.111,12.268-.383,18.4-.615q9.013-.342,18.023-.7l18.022-.709c5.818-.229,11.644-.456,17.484-.481,3.322-.014,6.645.04,9.953.192q2.477.114,4.935.31c.8.065,1.7.1,2.46.233.052.009.6.166.6.166q.174-.409-.208-.25c-.132-.018-.2-.007-.209.033-.107-.244-.4-.013-.389.122.025.272.355.529.977.373.71-.177.531-.783.137-1.046-.637-.425-2.473-.429-3.412-.5q-2.367-.191-4.758-.3c-6.452-.3-12.958-.188-19.413.033-13.346.458-26.681,1.088-40.007,1.671-7.538.329-15.1.592-22.61,1.07a.2.2,0,1,0,.02.4Z" fill="url(#radial-gradient-30)"/>
        <path id="Path_415" data-name="Path 415" d="M167.635,3730.8a255.134,255.134,0,0,1,38.089-2.062q2.7.06,5.393.179c1.812.081,3.729.293,5.543.273.53-.006.458-.754-.04-.807-.557-.059-1.111-.151-1.663-.222-.3-.038-.225.425-.036.487.544.177,1.11.342,1.641.529l.156-.781c-1.458-.2-3.1-.222-4.6-.288q-2.429-.107-4.866-.162-4.786-.109-9.582-.033c-6.509.1-13,.465-19.383,1.1-3.622.358-7.146.827-10.671,1.364-.276.043-.207.456.021.427Z" fill="url(#radial-gradient-31)"/>
      </g>
      <g id="Group_115" data-name="Group 115">
        <path id="Path_416" data-name="Path 416" d="M-314.872,3663.892a1041.659,1041.659,0,0,1,100.722-30.275,1007.659,1007.659,0,0,1,111.311-20.684A957,957,0,0,1,15,3605.153a888.741,888.741,0,0,1,124.517,8.21c20.277,2.819,40.184,6.36,59.359,10.66,15.65,3.509,31.668,7.87,42.175,14.768a31.471,31.471,0,0,1,6.509,5.555c.5.567.952-.544.692-.841-6.83-7.8-20.619-13.211-35.384-17.233-17.5-4.768-36.616-8.317-55.578-11.389a869.521,869.521,0,0,0-123.823-10.739,946.832,946.832,0,0,0-120.918,5.846,1002.088,1002.088,0,0,0-112.162,19.124,983.2,983.2,0,0,0-103.33,29.7q-6.144,2.142-12.148,4.373C-315.467,3663.331-315.265,3664.031-314.872,3663.892Z" fill="url(#radial-gradient-32)"/>
        <path id="Path_417" data-name="Path 417" d="M-297.309,3663.747c31.052-9.961,63.388-18.833,97.237-26.29,34.074-7.506,69.425-13.607,105.566-18.216,36.227-4.621,73.316-7.8,110.632-9.261,39.621-1.553,80.228-.949,118.608,4.543,32.54,4.656,63.542,12.856,87.212,24.916q4.4,2.244,8.439,4.655c.5.295.758-.615.4-.83-21.726-12.916-51.373-22.049-83.329-27.6-36.69-6.371-76.06-7.938-114.718-7.07-38.291.861-76.52,3.785-113.795,8.134-36.1,4.212-71.488,9.91-105.672,17.006a1010.675,1010.675,0,0,0-99.128,25.69q-5.865,1.854-11.621,3.786c-.3.1-.157.642.172.536Z" fill="url(#radial-gradient-33)"/>
        <path id="Path_418" data-name="Path 418" d="M-281.668,3666.071c29.488-8.982,60-17.063,91.787-23.9,31.995-6.885,65.047-12.582,98.785-17.021,34.055-4.48,68.91-7.743,103.99-9.5,36.555-1.828,74.052-1.745,109.83,2.782,30.913,3.911,60.658,11.163,83.606,22.212q4.136,1.99,7.946,4.134c.466.261.688-.564.353-.751-20.964-11.74-49.06-19.866-79.12-24.643-34.388-5.465-71-6.466-106.863-5.271-36.044,1.2-71.943,4.319-106.98,8.6-33.684,4.114-66.741,9.454-98.807,15.985-32.28,6.576-63.668,14.322-93.5,23.275q-5.656,1.7-11.229,3.46c-.361.115-.192.759.2.64Z" fill="url(#radial-gradient-34)"/>
        <path id="Path_419" data-name="Path 419" d="M-262.368,3667.933c27.632-8.834,57.75-15.274,88.353-21.165,31.64-6.089,63.621-11.8,96.309-16.387,32.363-4.541,65.466-7.972,99.029-9.4,30.562-1.3,61.8-1.106,91.908,2.01,27.459,2.842,54.37,8.264,75.57,17.488,2.743,1.194,5.365,2.45,7.887,3.756.476.246.68-.543.342-.717-19.381-10-44.928-16.312-71.827-19.869-29.311-3.876-60.048-4.632-90.243-3.827a970.649,970.649,0,0,0-100.2,8.265c-32.647,4.281-64.585,9.772-96.123,15.71-31.092,5.855-62.345,11.917-90.864,20.463-3.489,1.045-6.9,2.154-10.258,3.294-.213.072-.112.457.121.382Z" fill="url(#radial-gradient-35)"/>
        <path id="Path_420" data-name="Path 420" d="M-249.383,3670.968c25.319-7.422,51.582-13.763,79.089-18.988,27.739-5.269,56.213-9.548,84.883-13.4,30.279-4.071,60.853-7.848,92.088-9.631a787.8,787.8,0,0,1,93.971.276c27.195,1.711,56.1,4.378,78.9,12.35q4.327,1.512,8.255,3.275c.523.234.7-.546.343-.707-20.053-8.992-47.116-12.554-73.26-14.683a784.663,784.663,0,0,0-95.153-1.908c-31.972,1.3-63.251,4.794-94.185,8.852-28.619,3.755-57.09,7.847-84.923,12.847a817.689,817.689,0,0,0-80.71,18.293q-4.8,1.381-9.477,2.859c-.322.1-.186.677.183.568Z" fill="url(#radial-gradient-36)"/>
        <path id="Path_421" data-name="Path 421" d="M-232.955,3673.684c23.637-6.722,48.757-12.073,74.115-17,25.769-5.012,51.97-9.513,78.666-13.18,26.63-3.657,53.766-6.488,81.217-8.15,27.555-1.668,55.442-2.158,83.143-1.155,13.82.5,27.589,1.372,41.2,2.652,12.562,1.182,25.652,2.453,37.051,5.424a76.145,76.145,0,0,1,7.687,2.429c.371.14.582-.627.157-.786-9.794-3.677-21.776-5.378-33.621-6.7-13.643-1.521-27.479-2.617-41.393-3.32a838.411,838.411,0,0,0-83.906.138c-27.573,1.378-54.847,3.984-81.629,7.47-26.614,3.463-52.744,7.787-78.426,12.655-25.712,4.874-51.316,10.116-75.48,16.662q-4.485,1.215-8.9,2.493a.2.2,0,0,0-.088.232.2.2,0,0,0,.2.139Z" fill="url(#radial-gradient-37)"/>
        <path id="Path_422" data-name="Path 422" d="M-217.642,3675.855a656.935,656.935,0,0,1,65.028-14.988c22.8-4.108,46.184-7.381,69.715-10.3,24.758-3.075,49.69-5.874,74.872-7.976,25.354-2.116,51.016-3.487,76.748-3.6,24.164-.107,49.408.5,72.1,4.955q4.11.807,8.061,1.789c.47.116.6-.655.153-.765-21.627-5.311-46.2-6.474-70.042-6.664-25.852-.206-51.669.943-77.2,2.876-25.69,1.946-51.1,4.7-76.331,7.749-23.3,2.819-46.483,5.925-69.172,9.781a653.14,653.14,0,0,0-66.351,14.414q-3.906,1.1-7.73,2.258c-.27.082-.152.562.149.475Z" fill="url(#radial-gradient-38)"/>
        <path id="Path_423" data-name="Path 423" d="M-206.975,3678.158q30.18-6.939,61.472-12.618,31.383-5.656,63.686-9.961,32.162-4.287,65-7.186,32.649-2.888,65.724-4.376c21.151-.947,43.275-1.621,63.748,1.73q3.827.627,7.507,1.44c.485.106.6-.656.15-.754-19.637-4.291-41.609-4.3-62.651-3.525-22.17.821-44.278,2.216-66.2,4.037q-33.01,2.74-65.445,6.907-32.149,4.122-63.487,9.609c-21.02,3.683-41.751,7.792-62.024,12.381q-3.837.868-7.656,1.758c-.332.077-.21.646.175.558Z" fill="url(#radial-gradient-39)"/>
        <path id="Path_424" data-name="Path 424" d="M-199.239,3680.5c8.788-1.8,17.444-3.763,26.251-5.55s17.7-3.5,26.653-5.119q27.054-4.909,54.831-8.764,27.414-3.806,55.346-6.614,28.044-2.811,56.472-4.561c18.633-1.145,38.2-2.542,56.793-.572q3.645.387,7.187.961a.376.376,0,0,0,.142-.737c-18.193-2.927-37.679-1.9-56.337-.85q-28.7,1.617-57.082,4.328-28.228,2.694-55.98,6.463-27.5,3.75-54.388,8.508c-18.125,3.2-36.015,6.746-53.557,10.66-2.165.483-4.311.978-6.436,1.5a.18.18,0,0,0-.107.218.18.18,0,0,0,.207.126Z" fill="url(#radial-gradient-40)"/>
        <path id="Path_425" data-name="Path 425" d="M-189.945,3682.907c6.287-1.173,12.49-2.457,18.762-3.652s12.587-2.355,18.923-3.476q19.15-3.389,38.627-6.308,19.319-2.9,38.906-5.334c13.083-1.627,26.248-3.13,39.488-4.415,13.37-1.3,27.112-2.239,40.739-1.458q2.491.142,4.96.366c.409.036.478-.7-.038-.751-13.6-1.222-27.433-.5-40.918.712-13.308,1.194-26.519,2.719-39.642,4.331s-26.188,3.383-39.147,5.307q-19.292,2.865-38.289,6.18-19.135,3.335-37.924,7.135-2.3.469-4.568.969c-.226.051-.163.447.121.394Z" fill="url(#radial-gradient-41)"/>
        <path id="Path_426" data-name="Path 426" d="M-179.708,3685.809c8.172-1.52,16.232-3.18,24.426-4.676s16.463-2.912,24.781-4.245q24.923-3.991,50.407-7.031c4.634-.546,9.29-1.148,14-1.5a44.889,44.889,0,0,1,13.422.6c.517.124.678-.7.169-.808-7.678-1.624-16.142-.382-23.861.521q-12.865,1.5-25.6,3.262-25.427,3.5-50.2,8.033c-9.3,1.7-18.667,3.426-27.666,5.484-.212.048-.155.416.114.366Z" fill="url(#radial-gradient-42)"/>
        <path id="Path_427" data-name="Path 427" d="M-173.068,3688.862c6.885-1.09,13.823-2.111,20.763-3.113,6.722-.971,13.482-2.013,20.348-2.709a91.564,91.564,0,0,1,11.778-.425c.427.012.416-.623-.032-.654a67.106,67.106,0,0,0-10.557.3c-3.458.322-6.843.8-10.222,1.277q-10.264,1.455-20.441,3.055c-3.933.618-7.829,1.292-11.736,1.949-.189.032-.142.356.1.318Z" fill="url(#radial-gradient-43)"/>
      </g>
      <g id="Group_116" data-name="Group 116">
        <path id="Path_428" data-name="Path 428" d="M-779.221,3693.5c39.219-20.693,78.832-41.3,122.865-59.562a822.178,822.178,0,0,1,139.937-43.8,1047.294,1047.294,0,0,1,156.505-21.5,1096.75,1096.75,0,0,1,160.752,1.425c48.839,4.151,98.891,12.564,135.031,29.923,4.278,2.054,8.3,4.231,12.094,6.5.535.32.814-.691.423-.924-31.783-18.971-79.14-29.167-126.912-34.5-52.117-5.823-106.8-6.933-159.932-4.59a1074.982,1074.982,0,0,0-157.748,18.464,833.1,833.1,0,0,0-143.864,41.377c-45.154,17.675-85.757,38.013-124.929,58.8q-7.333,3.891-14.617,7.8c-.3.163-.046.818.4.585Z" fill="url(#radial-gradient-44)"/>
        <path id="Path_429" data-name="Path 429" d="M-759.045,3688.486c39.825-17.227,79.626-34.513,121.859-50.318,41.608-15.57,85.669-29.722,133.184-40.555a1029.407,1029.407,0,0,1,156.249-22.7c47.54-3.316,96.272-3.819,143.633.466,44.48,4.025,88.061,12.508,122.728,27.06q6.786,2.849,13.046,5.978c.6.3.842-.67.421-.879-31.957-15.89-73.556-25.869-117.393-31.117-46.1-5.519-94.124-6.08-141.161-3.694a1056.738,1056.738,0,0,0-158.7,19.921A991.984,991.984,0,0,0-622.7,3631.963c-42.536,15.373-82.5,32.386-121.957,49.606q-7.362,3.214-14.712,6.434c-.276.121-.084.66.325.483Z" fill="url(#radial-gradient-45)"/>
        <path id="Path_430" data-name="Path 430" d="M-715.277,3680.811c17.539-7.444,34.792-15.021,52.865-22.158s36.663-13.988,55.769-20.457a1116.771,1116.771,0,0,1,120.7-33.548A1082.324,1082.324,0,0,1-347,3583.717c45.246-3.81,92.422-5.073,138.007-1.926,38.515,2.66,78.448,9.13,105.878,23.328a101.136,101.136,0,0,1,9.4,5.515c.522.345.85-.692.461-.949-23.7-15.7-61.522-23.778-99.546-27.526-44.5-4.387-91.421-3.768-136.2-.773a1074.019,1074.019,0,0,0-139.317,18.626,1106.511,1106.511,0,0,0-124.5,32.715c-38.9,12.657-75.6,26.9-110.4,42.159-4.145,1.818-8.225,3.658-12.226,5.552-.17.081-.025.459.179.373Z" fill="url(#radial-gradient-46)"/>
        <path id="Path_431" data-name="Path 431" d="M-669.019,3672c32.1-11.733,64.629-23.139,98.719-33.446,33.927-10.257,69.177-19.5,105.808-27.21a1116.041,1116.041,0,0,1,116.056-18.213c39.291-4.018,80.349-6.273,120.478-4.79,37.549,1.387,75.966,7.089,103.428,20.329q4.629,2.232,8.715,4.709c.56.337.868-.688.458-.935-23.347-14.039-58.783-21.457-94.565-24.117-20.418-1.518-41.171-1.628-61.76-1.109-20.379.514-40.68,1.694-60.772,3.438a1098.879,1098.879,0,0,0-116.254,16.522c-37.561,7.366-73.678,16.435-108.429,26.585-34.551,10.093-67.751,21.272-99.967,33.077q-6.109,2.238-12.123,4.537c-.35.133-.164.759.208.623Z" fill="url(#radial-gradient-47)"/>
        <path id="Path_432" data-name="Path 432" d="M-631.066,3667.131c30.785-9.7,61.547-19.366,93.579-28.058,32.007-8.684,65-16.512,99.108-23a1070.879,1070.879,0,0,1,106.693-14.919c34.524-3.022,70.362-4.575,105.388-3.106,29.2,1.224,59.956,5.04,81.83,15.189a82.765,82.765,0,0,1,7.46,3.926c.539.32.83-.652.437-.885-18.965-11.264-48.031-16.412-76.69-18.443-15.9-1.126-31.989-1.335-48.025-1.153-18.559.212-37.083,1.017-55.447,2.342a1050.292,1050.292,0,0,0-107.217,13.467c-34.77,6.149-68.373,13.808-100.937,22.376-32.534,8.561-64.1,18.016-94.9,28q-5.748,1.863-11.435,3.77c-.28.094-.152.6.161.5Z" fill="url(#radial-gradient-48)"/>
        <path id="Path_433" data-name="Path 433" d="M-596.184,3662.924c13.965-3.434,27.606-7.205,41.421-10.784q20.751-5.376,41.745-10.518c27.983-6.813,56.4-13.219,85.576-18.709,28.936-5.445,58.614-10,88.939-13.156A843.356,843.356,0,0,1-247.146,3605c28.262.141,59.026,2.513,79.661,12.923a55.335,55.335,0,0,1,6.141,3.593c.515.349.862-.668.474-.93-16.641-11.244-45.359-15.385-72.36-16.288-30.941-1.035-62.508.535-92.929,3.307-30.283,2.759-59.991,6.956-88.931,12.115-29.563,5.27-58.382,11.53-86.631,18.311-28.5,6.842-56.5,14.178-84.417,21.576-3.429.908-6.839,1.826-10.215,2.782a.279.279,0,0,0-.168.346.279.279,0,0,0,.337.185Z" fill="url(#radial-gradient-49)"/>
        <path id="Path_434" data-name="Path 434" d="M-555.866,3659.683c23.175-6.463,47.3-12,72-16.893,24.732-4.9,49.912-9.257,75.141-13.493,26.156-4.392,52.551-8.517,79.536-11.5a674.786,674.786,0,0,1,80.338-4.469c12.371.116,24.919.534,37.037,1.823,10.672,1.136,21.362,3.064,29.827,6.55a45.865,45.865,0,0,1,5.907,2.93c.562.333.866-.677.454-.919-14.693-8.659-39.5-10.452-61.049-11.144a630.757,630.757,0,0,0-81.572,3.143c-26.952,2.645-53.324,6.541-79.371,10.817-25.73,4.225-51.373,8.656-76.629,13.528-25.012,4.825-49.766,10.153-73.184,16.656q-4.33,1.2-8.6,2.458a.271.271,0,0,0-.15.331.271.271,0,0,0,.313.183Z" fill="url(#radial-gradient-50)"/>
        <path id="Path_435" data-name="Path 435" d="M-519.788,3656.786c10.856-1.686,21.454-3.859,32.131-5.8q16.1-2.934,32.282-5.77c21.72-3.79,43.587-7.385,65.7-10.58,21.738-3.142,43.711-5.908,65.941-8.07,22.273-2.166,44.8-3.726,67.46-4.475,19.891-.657,41.862-1.31,60.182,3.282,2.15.539,4.21,1.154,6.191,1.831.526.18.78-.824.207-1.018-16.664-5.642-37.859-5.824-57.326-5.365-22.9.54-45.7,1.94-68.248,3.986-22.478,2.04-44.713,4.711-66.681,7.81-21.93,3.093-43.612,6.6-65.133,10.321-21.7,3.752-43.244,7.718-64.744,11.736-2.737.512-5.442,1.033-8.121,1.613-.3.065-.228.563.159.5Z" fill="url(#radial-gradient-51)"/>
        <path id="Path_436" data-name="Path 436" d="M-489.395,3656.243c4.4-.4,8.631-1.158,12.9-1.82q6.662-1.035,13.328-2.061,13.68-2.1,27.386-4.156c17.927-2.664,35.924-5.219,54.058-7.523,17.994-2.286,36.121-4.329,54.394-6,18.331-1.677,36.814-2.974,55.394-3.76,18.7-.791,37.744-1.263,56.345.247q3.47.281,6.9.659c.579.063.7-.987-.053-1.069-18.475-2.012-37.531-1.82-56.294-1.149-18.606.666-37.125,1.859-55.5,3.448-18.481,1.6-36.81,3.6-55,5.864q-27.241,3.4-54.117,7.458-26.706,3.984-53.226,8.268c-2.262.364-4.425.746-6.589,1.232-.184.042-.162.384.065.363Z" fill="url(#radial-gradient-52)"/>
        <path id="Path_437" data-name="Path 437" d="M-451.208,3655.918c3.517-.35,6.927-.931,10.367-1.436q5.295-.777,10.6-1.537,10.414-1.478,20.9-2.83,21.177-2.734,42.591-4.994,21.307-2.253,42.814-4.014c14.433-1.182,28.93-2.243,43.476-3.028,14.72-.794,29.576-1.227,44.372-.731,1.875.063,3.731.127,5.611.146.54,0,.494-.778-.042-.825-3.632-.321-7.341-.391-11.025-.459q-5.626-.1-11.258-.051c-7.45.064-14.889.309-22.3.662-14.606.7-29.152,1.75-43.632,2.911q-21.624,1.735-43.066,3.967t-42.642,4.975q-20.931,2.713-41.6,5.9c-1.791.278-3.514.57-5.238.937-.214.045-.179.438.075.412Z" fill="url(#radial-gradient-53)"/>
        <path id="Path_438" data-name="Path 438" d="M-413.809,3656.41c10.31-1.12,20.485-2.556,30.714-3.843q15.384-1.933,30.874-3.658c20.505-2.245,41.22-4.083,62.144-5.065,5.72-.268,11.471-.518,17.22-.539,2.89-.011,5.783.042,8.656.2s5.656.459,8.465.764c.542.059.579-.813.075-.9a93.24,93.24,0,0,0-15.158-1.037c-5.136-.024-10.268.171-15.38.393q-15.7.683-31.255,1.969c-20.892,1.692-41.53,4.056-62.026,6.654-11.5,1.457-23.081,2.88-34.4,4.651-.232.037-.168.439.075.413Z" fill="url(#radial-gradient-54)"/>
        <path id="Path_439" data-name="Path 439" d="M-377.253,3657.247c6.547-.582,13.11-1.14,19.659-1.725q9.933-.888,19.9-1.685,19.758-1.582,39.611-2.851c3.664-.231,7.332-.486,11.008-.67,2.261-.113,5.629-.152,6.743,1.051a.467.467,0,0,0,.622-.008.424.424,0,0,0,.123-.32.426.426,0,0,0-.154-.307c-.911-.983-3.008-1.3-5.059-1.343-2.978-.062-6.05.263-8.994.446q-10.2.633-20.381,1.375-20.271,1.464-40.41,3.325-5.641.521-11.267,1.079c-3.826.385-7.613.83-11.417,1.258a.189.189,0,0,0-.168.2.188.188,0,0,0,.186.179Z" fill="url(#radial-gradient-55)"/>
        <path id="Path_440" data-name="Path 440" d="M-350.057,3659.389c7.1-.507,14.182-1.089,21.292-1.568s14.267-.885,21.429-1.2c2.85-.126,6.158-.388,8.166.845.389.239.516-.364.442-.464-.86-1.178-3.653-1.337-5.876-1.291-3.569.075-7.16.33-10.708.53q-11.173.628-22.272,1.537c-4.2.344-8.348.752-12.492,1.233a.19.19,0,0,0-.167.1.191.191,0,0,0,.01.2.191.191,0,0,0,.176.084Z" fill="url(#radial-gradient-56)"/>
      </g>
      <g id="Group_117" data-name="Group 117">
        <path id="Path_441" data-name="Path 441" d="M-964.163,3650.371c33.116-14.153,65.44-28.7,99.735-42.178,34.043-13.38,69.536-25.923,107.138-36.783a902.166,902.166,0,0,1,123.006-26.92c42.58-6.076,87.39-8.711,131.544-6.033a476.5,476.5,0,0,1,64.625,8.158c19.015,3.82,37.845,8.815,52.285,16.123a74.341,74.341,0,0,1,9.844,5.913c.763.549,1.247-.527.808-.843-11.308-8.129-27.775-14-45.424-18.44a427.073,427.073,0,0,0-61.484-10.419c-44.118-4.4-89.866-3.151-133.488,1.976-43.928,5.163-85.776,14.056-125.231,24.766a1149.781,1149.781,0,0,0-110.321,36.335c-34.865,13.351-68.3,27.623-100.865,42.3q-6.225,2.808-12.351,5.664c-.174.081-.023.463.179.377Z" fill="url(#radial-gradient-57)"/>
        <path id="Path_442" data-name="Path 442" d="M-960.729,3655.73c30.878-15.671,66.066-28.989,101.418-42.095,34.365-12.741,69.374-25.12,106.407-35.934a860.149,860.149,0,0,1,117.282-26.04c40.676-5.927,83.5-8.86,125.908-7.257a520.031,520.031,0,0,1,63.16,6.093c18.486,2.993,36.642,7.184,51.357,13.553a96.851,96.851,0,0,1,10.062,5.047c.582.337.9-.659.473-.9-12.612-7.265-29.372-12.366-47.194-15.987a462.882,462.882,0,0,0-59.661-7.729c-42.747-2.954-86.5-.991-128.2,4.221A833.833,833.833,0,0,0-738.8,3572.9c-37.846,10.471-73.491,22.741-108.258,35.5-35.269,12.946-70.8,26.028-102.344,41.17-3.942,1.892-7.773,3.838-11.545,5.812-.172.09-.038.477.221.346Z" fill="url(#radial-gradient-58)"/>
        <path id="Path_443" data-name="Path 443" d="M-956.02,3661.061c31.391-14.036,63.575-27.592,97.219-40.312,32.8-12.4,66.637-24.239,102.088-34.742a894.664,894.664,0,0,1,110.915-25.75,713.011,713.011,0,0,1,123.744-9.5c38.5.556,79.863,4.231,111.853,15.414q5.98,2.09,11.4,4.526c.7.315.959-.706.472-.924-28.617-12.839-68.175-17.817-105.875-19.456-42.03-1.827-84.536.861-125,6.549a860.182,860.182,0,0,0-113.006,24.093c-36.213,10.173-70.576,21.907-103.891,34.223q-51.578,19.067-99.277,40.5c-3.648,1.64-7.242,3.309-10.825,4.983-.184.087-.012.481.184.394Z" fill="url(#radial-gradient-59)"/>
        <path id="Path_444" data-name="Path 444" d="M-958.683,3671.64c31.313-13.618,62.393-27.337,95.062-40.176,32.451-12.754,66.22-24.748,101.915-35.22a970.146,970.146,0,0,1,109.13-25.42,820.679,820.679,0,0,1,116.6-11.9c37.2-.974,76.1,1.278,109.041,10.364q6.018,1.661,11.678,3.606c.544.186.791-.81.215-1.007-30.921-10.558-68.953-14.229-106.06-14.172-39.479.06-79.032,3.924-116.591,9.728a951.17,951.17,0,0,0-110.107,23.89c-36.149,10.077-70.321,21.794-103.059,34.359-33.287,12.775-65.091,26.448-96.419,40.361q-5.8,2.577-11.524,5.2c-.191.087-.067.471.123.388Z" fill="url(#radial-gradient-60)"/>
        <path id="Path_445" data-name="Path 445" d="M-954.133,3679.312c29.245-12.591,58.02-25.432,87.989-37.613,29.912-12.157,60.837-23.757,93.475-34.1a914.675,914.675,0,0,1,101.509-26.013,806.77,806.77,0,0,1,110.46-13.867c18.822-1.014,37.815-1.315,56.724-.8,18.509.5,37.247,1.858,54.419,5.438q6.357,1.326,12.3,3.059c.557.162.752-.763.2-.924-15.762-4.578-33.7-6.827-51.755-7.872-18.83-1.09-37.989-1.1-56.888-.47a790.9,790.9,0,0,0-111.466,11.956,897.191,897.191,0,0,0-102.987,24.757c-33.216,10.056-64.632,21.481-94.9,33.564s-59.409,24.831-88.4,37.644c-3.645,1.611-7.246,3.247-10.854,4.878-.177.079-.019.445.174.362Z" fill="url(#radial-gradient-61)"/>
        <path id="Path_446" data-name="Path 446" d="M-952.07,3688.991c24.212-13.932,52.807-25.8,81.857-37.2,28.771-11.288,57.874-22.415,88.218-32.67a940.128,940.128,0,0,1,94.709-26.946,726.137,726.137,0,0,1,104.967-15.821c35.694-2.678,72.438-2.57,107.745,1.342q6.988.774,13.876,1.747a.478.478,0,0,0,.568-.367.478.478,0,0,0-.368-.568c-35.021-4.922-71.8-5.969-107.927-4a716.168,716.168,0,0,0-105.39,13.831,891.4,891.4,0,0,0-97.077,26.174c-30.775,10.068-60.131,21.138-89.074,32.432-29.108,11.358-58.242,22.935-83.2,36.537q-4.662,2.541-9.124,5.168c-.161.095-.013.471.221.337Z" fill="url(#radial-gradient-62)"/>
        <path id="Path_447" data-name="Path 447" d="M-948.07,3698.054c24.21-11.82,48.523-23.546,74.17-34.619,25.351-10.944,51.681-21.356,79.181-30.969,27.358-9.564,55.887-18.34,85.6-26.022a901.24,901.24,0,0,1,95.488-19.745c33.736-4.92,70.343-7.44,104.852-2.887q6.207.819,12.226,1.934a.465.465,0,0,0,.554-.354.465.465,0,0,0-.354-.554c-33.628-6.2-70.39-4.984-104.658-.741-33.452,4.142-65.672,10.926-96.455,18.5-30.254,7.446-59.3,16.05-87.135,25.5-28.094,9.533-54.981,19.913-80.806,30.884q-38.42,16.323-74.051,34.178-4.47,2.235-8.866,4.5c-.2.1-.05.538.254.39Z" fill="url(#radial-gradient-63)"/>
        <path id="Path_448" data-name="Path 448" d="M-943.731,3708.705c20.18-12.662,44.726-23.222,69.8-33.461,24.228-9.892,48.913-19.526,74.379-28.64,25.319-9.061,51.428-17.608,78.547-25.315,27.067-7.692,55.155-14.547,84.267-20.165,15.056-2.906,30.4-5.57,46.012-7.658,16.053-2.147,32.921-3.6,49.569-2.541q6.39.405,12.564,1.329a.485.485,0,0,0,.477-.14.484.484,0,0,0,.1-.486.485.485,0,0,0-.38-.321c-16.14-2.4-33.143-1.956-49.49-.309-15.8,1.592-31.23,4.157-46.358,6.871-29.6,5.311-58.214,11.914-85.762,19.429-27.8,7.583-54.531,16.085-80.41,25.156-25.777,9.036-50.715,18.637-75.137,28.538-25,10.135-50.257,20.4-71.043,32.7-2.561,1.515-5,3.074-7.374,4.662-.149.1,0,.5.23.351Z" fill="url(#radial-gradient-64)"/>
        <path id="Path_449" data-name="Path 449" d="M-939.7,3717.528c7.545-5.6,16.761-10.554,26.586-15.2,10.186-4.817,20.792-9.432,31.478-13.978q31.746-13.5,65.576-25.76,33.669-12.2,69.193-23.087c23.716-7.266,47.955-14.274,73.04-20.342,25.01-6.051,51.687-11.025,79.7-12.086q5.086-.192,10.19-.207a.456.456,0,0,0,.4-.241.456.456,0,0,0-.023-.468.456.456,0,0,0-.424-.2c-27.974.117-54.978,4.368-80.2,10.052-25.618,5.773-50.147,12.821-74.177,20.036q-35.977,10.8-70.158,22.97-34.278,12.2-66.524,25.714-15.823,6.628-31.117,13.556c-10.191,4.624-20.219,9.425-28.492,14.922-1.91,1.268-3.7,2.573-5.4,3.915-.154.122.1.589.349.407Z" fill="url(#radial-gradient-65)"/>
        <path id="Path_450" data-name="Path 450" d="M-933.16,3721.368c17.55-7.694,34.9-15.5,52.545-23.14,17.719-7.67,35.671-15.213,54.081-22.48,18.223-7.193,36.892-14.121,56.167-20.62s39.141-12.564,59.7-18.019q15.329-4.066,31.152-7.659c10.964-2.481,22.582-5.257,34.892-5.349a69.317,69.317,0,0,1,9.118.519c.751.095.775-.853.077-.94-12.015-1.487-24.237.55-35.225,2.874-10.87,2.3-21.534,4.854-32.032,7.536-20.818,5.321-40.935,11.293-60.42,17.715-19.562,6.448-38.49,13.351-56.939,20.546-18.487,7.209-36.5,14.706-54.237,22.357s-35.292,15.42-52.592,23.311c-2.183,1-4.337,2.008-6.513,3.007-.184.085-.06.466.222.342Z" fill="url(#radial-gradient-66)"/>
        <path id="Path_451" data-name="Path 451" d="M-921.225,3724.215c7.428-2.891,14.434-6.054,21.582-9.111q11.052-4.725,22.167-9.415c14.6-6.15,29.309-12.241,44.247-18.193q22.475-8.957,45.756-17.408c15.388-5.549,31.07-10.947,47.265-15.914,15.29-4.689,32.266-9.077,50.7-9.278q3.324-.036,6.636.119c.579.026.6-.853-.044-.882-18.3-.8-35.727,2.91-51.188,7.357-8.127,2.337-15.98,4.91-23.785,7.5q-12.089,4.006-23.9,8.212-23.454,8.339-45.965,17.294-22.68,8.964-44.7,18.323-21.953,9.281-43.607,18.732c-1.8.787-3.549,1.6-5.282,2.425-.108.051-.03.3.119.243Z" fill="url(#radial-gradient-67)"/>
        <path id="Path_452" data-name="Path 452" d="M-892.486,3719.435c5.488-2.293,10.465-4.892,15.684-7.332q7.944-3.713,16.087-7.32,16.428-7.277,33.641-14.11,17.063-6.774,34.81-13.114,17.826-6.351,36.326-12.227c6.048-1.92,12.081-3.921,18.544-5.494a67.473,67.473,0,0,1,20.242-2.224,39.869,39.869,0,0,1,4.97.654.459.459,0,0,0,.461-.118.459.459,0,0,0,.109-.463.459.459,0,0,0-.36-.311c-13.643-2.6-27.657,1.922-38.741,5.4Q-769.437,3668.64-787.5,3675q-17.982,6.335-35.255,13.137-17.318,6.821-33.843,14.112c-10.991,4.839-21.768,9.808-32.16,14.957-1.335.662-2.583,1.357-3.811,2.067-.059.034-.021.2.079.161Z" fill="url(#radial-gradient-68)"/>
        <path id="Path_453" data-name="Path 453" d="M-855.8,3711.089c1.819-.88,3.746-1.709,5.586-2.579q2.784-1.315,5.588-2.62,5.483-2.548,11.047-5.056,11.34-5.121,23.007-10.063,11.58-4.9,23.479-9.613a228.2,228.2,0,0,1,22.868-8.1,91.121,91.121,0,0,1,28.979-3.647.448.448,0,1,0-.045-.893c-18.835-.917-35.215,5.189-49.052,10.666q-23.9,9.459-46.513,19.665-6.355,2.868-12.588,5.8-3.183,1.5-6.337,3c-2.12,1.015-4.132,2.08-6.239,3.1-.18.087-.04.458.22.332Z" fill="url(#radial-gradient-69)"/>
        <path id="Path_454" data-name="Path 454" d="M-824.445,3703.044c.551-.2,1.151-.345,1.692-.542.569-.207,1.108-.441,1.654-.662,1.2-.486,2.382-.982,3.575-1.472l6.9-2.834q6.773-2.776,13.616-5.511,6.982-2.791,14.036-5.539c4.52-1.761,9-3.569,13.659-5.24,4.414-1.582,10.356-3.294,15.861-2.017a.441.441,0,0,0,.434-.118.442.442,0,0,0,.105-.437.442.442,0,0,0-.333-.3c-4.711-1.08-9.79-.054-13.869,1.225-2.329.731-4.475,1.589-6.644,2.427q-3.618,1.4-7.218,2.8-14.258,5.577-28.225,11.33c-2.583,1.064-5.162,2.131-7.718,3.211q-1.991.84-3.975,1.684c-.575.246-1.141.5-1.708.747-.709.312-1.288.673-1.959,1-.1.049-.044.3.119.243Z" fill="url(#radial-gradient-70)"/>
      </g>
      <g id="Group_118" data-name="Group 118">
        <path id="Path_455" data-name="Path 455" d="M-268.569,3565.666c10.776-1.72,21.555-3.36,32.637-4.541,11.047-1.177,22.247-2,33.505-2.5a640.742,640.742,0,0,1,68.372.791c22.864,1.45,45.432,3.994,67.386,7.443,21.7,3.408,43.106,7.522,62.228,13.693,17.561,5.667,33.172,12.793,45.914,21.007q2.346,1.512,4.583,3.066c.513.354.832-.7.466-.959-11.887-8.459-26.983-15.876-43.936-21.88-18.581-6.581-39.409-11.029-61-14.638-21.7-3.628-44.033-6.39-66.7-8.087a656.332,656.332,0,0,0-68.956-1.632,515.239,515.239,0,0,0-67.075,6.276c-2.541.416-5.034.891-7.513,1.388-.294.058-.167.61.093.568Z" fill="url(#radial-gradient-71)"/>
        <path id="Path_456" data-name="Path 456" d="M-248.236,3566.12c10.191-1.264,20.409-2.415,30.806-3.2,10.476-.787,21.055-1.253,31.647-1.413a606.336,606.336,0,0,1,63.768,2.683c20.631,1.862,41.2,4.117,61.084,7.432,18.274,3.046,35.967,7.019,52,12.327,14.9,4.934,28.37,11,38.836,18.207q1.923,1.323,3.7,2.7c.261.2.526-.085.6-.183a.5.5,0,0,0-.193-.668c-9.824-7.518-22.84-13.909-37.53-19.136-15.538-5.529-32.862-9.732-50.85-12.955-19.2-3.44-39.114-5.8-59.144-7.718-21.236-2.034-42.613-3.5-64.292-3.412a532.5,532.5,0,0,0-62.7,3.933q-3.9.48-7.749,1.069c-.2.03-.141.355.017.335Z" fill="url(#radial-gradient-72)"/>
        <path id="Path_457" data-name="Path 457" d="M-226.991,3567.716c9.021-.346,18.009-.882,27.037-1.206s18.066-.537,27.115-.575a527.164,527.164,0,0,1,53.656,2.281c17.306,1.7,34.3,4.255,50.842,7.265,15.773,2.87,31.194,6.334,45.229,10.923,12.835,4.2,24.5,9.333,33.594,15.478q1.713,1.156,3.293,2.358c.256.194.54-.076.606-.182a.5.5,0,0,0-.2-.663c-8.458-6.366-19.642-11.763-32.17-16.189-13.564-4.794-28.649-8.445-44.175-11.425-16.171-3.1-32.9-5.686-49.836-7.572a504.877,504.877,0,0,0-53.811-2.958c-18.182-.071-36.347.653-54.407,1.629-2.273.123-4.537.256-6.8.421-.248.018-.214.424.021.415Z" fill="url(#radial-gradient-73)"/>
        <path id="Path_458" data-name="Path 458" d="M-191.139,3570.911c6.763-.07,13.5-.3,20.273-.281q10.23.027,20.433.465c13.529.58,27,1.7,40.17,3.316,13.206,1.622,26.148,3.767,38.651,6.414a353.007,353.007,0,0,1,35.176,9.2c10.806,3.488,20.905,7.566,29.251,12.44q1.524.89,2.965,1.812a.476.476,0,0,0,.643-.19.514.514,0,0,0-.206-.7c-7.879-5.008-17.6-9.251-28.148-12.858a326.764,326.764,0,0,0-34.8-9.534c-12.357-2.736-25.166-4.973-38.254-6.7-13.164-1.737-26.611-2.963-40.177-3.616-13.626-.657-27.352-.791-41.016-.356-1.667.053-3.318.14-4.973.254-.194.013-.175.332.017.33Z" fill="url(#radial-gradient-74)"/>
        <path id="Path_459" data-name="Path 459" d="M-146.853,3575.518c4.524.457,9.017,1,13.525,1.5s9.023,1.015,13.513,1.567c8.928,1.1,17.8,2.3,26.529,3.736,17.2,2.832,33.95,6.527,48.763,11.725a123.327,123.327,0,0,1,12.382,5c1.92.92,3.74,1.893,5.427,2.919,1.755,1.067,3.288,2.21,4.922,3.32a.4.4,0,0,0,.511-.115.408.408,0,0,0-.06-.556,39.765,39.765,0,0,0-8.968-5.724,107.706,107.706,0,0,0-10.959-4.627,223.363,223.363,0,0,0-23.3-7.013c-16.447-4.052-34.067-6.8-51.881-8.975-5.044-.615-10.119-1.17-15.2-1.7-5.059-.528-10.154-.952-15.225-1.443-.193-.019-.236.366.02.392Z" fill="url(#radial-gradient-75)"/>
        <path id="Path_460" data-name="Path 460" d="M-101.2,3585.472a24.088,24.088,0,0,0,3.418.624q1.859.27,3.7.57,3.54.576,7,1.263c4.609.914,9.115,1.96,13.469,3.139a155.829,155.829,0,0,1,24,8.53q3.054,1.4,5.9,2.9c1.874.988,3.546,2.084,5.5,3.029.584.282.6-.555.374-.722a38.916,38.916,0,0,0-4.841-2.824q-2.584-1.363-5.335-2.646-5.34-2.483-11.275-4.627A176.933,176.933,0,0,0-85.3,3587.6q-3.931-.766-7.968-1.392-1.874-.289-3.766-.549a22.608,22.608,0,0,0-4.157-.371c-.127.006-.1.166-.014.19Z" fill="url(#radial-gradient-76)"/>
      </g>
      <g id="Group_119" data-name="Group 119">
        <path id="Path_461" data-name="Path 461" d="M-494.216,3539.159c11.659-2.9,23.475-5.581,35.74-7.8,12.441-2.253,25.189-4.083,38.116-5.526a678.9,678.9,0,0,1,78.308-4.039,788.511,788.511,0,0,1,80.808,4.658c26.876,2.909,53.17,7.056,78.633,12.178,23,4.626,46.294,9.937,64.6,18.4q3.579,1.655,6.834,3.463c.574.318.84-.711.426-.939-16.835-9.252-39.452-15.155-62.344-20.007-25.049-5.309-50.954-9.693-77.453-12.885a802,802,0,0,0-81.895-5.718,692.24,692.24,0,0,0-78.95,3.052,535.413,535.413,0,0,0-74.221,12.269q-4.455,1.086-8.782,2.282c-.328.091-.2.713.179.618Z" fill="url(#radial-gradient-77)"/>
        <path id="Path_462" data-name="Path 462" d="M-476.284,3540.163c11.433-2.129,22.91-4.146,34.678-5.786q17.19-2.4,34.813-3.919c23.608-2.046,47.62-2.95,71.586-2.821,24.087.13,48.152,1.306,71.842,3.445,23.879,2.155,47.39,5.29,70.226,9.343,21.639,3.841,43.313,8.466,60.981,15.871q3.438,1.442,6.621,3.018c.591.292.825-.666.409-.87-16.554-8.108-37.749-13.279-59.33-17.364-22.451-4.249-45.639-7.584-69.2-9.977-23.8-2.417-48.017-3.867-72.311-4.243s-48.648.321-72.658,2.187a665.108,665.108,0,0,0-69.46,8.952q-4.212.78-8.345,1.649c-.278.059-.2.578.148.514Z" fill="url(#radial-gradient-78)"/>
        <path id="Path_463" data-name="Path 463" d="M-459.055,3542.448c21.593-2.612,43.3-4.829,65.378-6.176,21.951-1.338,44.09-1.952,66.207-1.84,21.435.109,42.9.867,64.11,2.409,20.064,1.459,39.945,3.648,59.181,6.83a409.094,409.094,0,0,1,54.238,12.5q3.24,1.008,6.408,2.067c.485.162.72-.8.187-.979a384.688,384.688,0,0,0-53.686-13.358c-18.951-3.4-38.613-5.791-58.5-7.429-20.894-1.721-42.071-2.636-63.243-2.9-22.22-.276-44.469.2-66.558,1.405s-44.028,3.141-65.58,5.815c-2.741.34-5.458.723-8.174,1.108-.346.049-.255.58.027.546Z" fill="url(#radial-gradient-79)"/>
        <path id="Path_464" data-name="Path 464" d="M-440.838,3545.123c9.216-.465,18.38-1.177,27.587-1.689s18.451-.943,27.7-1.28c18.484-.674,37.031-.972,55.564-.794,17.989.172,35.97.792,53.813,1.938,17.325,1.113,34.524,2.726,51.429,4.9,17,2.189,33.705,4.95,49.877,8.333q3.012.63,6,1.289c.6.133.74-.845.184-.968-15.887-3.5-32.307-6.392-49.065-8.709-16.9-2.336-34.115-4.095-51.48-5.34-17.667-1.267-35.479-2-53.322-2.263-18.615-.28-37.255-.066-55.835.54-18.6.607-37.147,1.609-55.6,2.908-2.3.162-4.592.361-6.877.581a.278.278,0,0,0-.233.288.278.278,0,0,0,.26.264Z" fill="url(#radial-gradient-80)"/>
        <path id="Path_465" data-name="Path 465" d="M-424.668,3549.095c7.515-.6,14.99-1.3,22.528-1.833s15.112-.963,22.7-1.295c15.18-.662,30.431-.924,45.668-.789s30.465.668,45.591,1.587c15.055.915,30.013,2.22,44.788,3.912,14.945,1.712,29.7,3.822,44.179,6.324q2.7.467,5.379.95a.438.438,0,0,0,.168-.858q-21.42-3.851-43.6-6.556c-14.791-1.8-29.778-3.216-44.874-4.236-15.169-1.024-30.446-1.647-45.751-1.867-15.232-.219-30.489-.042-45.684.536-15.241.579-30.515,1.5-45.516,2.961-1.879.183-3.746.377-5.608.595-.355.042-.292.6.028.569Z" fill="url(#radial-gradient-81)"/>
        <path id="Path_466" data-name="Path 466" d="M-410.551,3552.6c12.9-1.575,26.233-1.827,39.459-2.169,12.983-.335,25.978-.568,38.98-.585,12.977-.018,25.956.165,38.9.658,12.849.489,25.656,1.287,38.309,2.5s25.133,2.833,37.276,4.953q2.3.4,4.59.828c.617.115.719-.819.18-.919-12.025-2.227-24.407-3.97-36.974-5.284-12.6-1.317-25.367-2.209-38.19-2.779-12.974-.576-26-.816-39.027-.833-13.066-.017-26.13.2-39.176.545q-9.774.256-19.539.609c-6.678.245-13.355.576-19.9,1.288-1.656.18-3.29.388-4.91.634-.349.053-.263.593.028.557Z" fill="url(#radial-gradient-82)"/>
        <path id="Path_467" data-name="Path 467" d="M-399.432,3556.608c5.559-.241,11.089-.639,16.639-.926s11.124-.524,16.7-.715q16.725-.572,33.5-.567c22.3,0,44.589.743,66.678,2.24q9.276.629,18.5,1.435,4.566.4,9.115.843c3.137.3,6.259.681,9.425.9.465.033.479-.745.059-.8-5.263-.762-10.8-1.181-16.189-1.666q-8.245-.743-16.54-1.343-16.586-1.2-33.315-1.825c-22.294-.827-44.693-.881-67-.163q-9.434.3-18.838.791c-6.261.324-12.578.634-18.758,1.234a.283.283,0,0,0-.243.294.283.283,0,0,0,.271.269Z" fill="url(#radial-gradient-83)"/>
        <path id="Path_468" data-name="Path 468" d="M-388.054,3560.706c.083-.251-.683-.169-.755.025-.043.116.164.245.316.317a6.549,6.549,0,0,0,2.888.155c4.868-.293,9.729-.587,14.608-.832q14.817-.744,29.714-.98c19.728-.312,39.513.041,59.144,1.051q8.213.423,16.386,1,4.086.289,8.161.617c2.827.228,5.644.512,8.486.686.512.032.509-.821-.044-.887-4.524-.536-9.209-.827-13.809-1.164q-6.744-.492-13.519-.879-13.724-.783-27.533-1.129c-18.337-.459-36.746-.312-55.049.4q-7.693.3-15.362.743-3.834.226-7.659.487c-1.3.089-2.613.168-3.911.275-.489.04-1.012.069-1.486.14a2.465,2.465,0,0,1-.71.136c-1.064-.115.159-.4.11-.176,0,.009.018.028.024.011Z" fill="url(#radial-gradient-84)"/>
        <path id="Path_469" data-name="Path 469" d="M-381.835,3565.453c3.723.017,7.424-.15,11.134-.283s7.425-.265,11.142-.371q11.151-.32,22.319-.452,22.333-.252,44.672.3,12.621.315,25.206.891c.578.026.614-.965-.049-1q-22.24-1.026-44.6-1.181c-14.887-.114-29.8.065-44.659.543q-6.306.2-12.6.473c-4.211.18-8.434.362-12.571.8a.137.137,0,0,0-.12.143.137.137,0,0,0,.133.13Z" fill="url(#radial-gradient-85)"/>
      </g>
      <g id="Group_120" data-name="Group 120">
        <path id="Path_470" data-name="Path 470" d="M-715.4,3558.892a405.758,405.758,0,0,1,64.126-25.948,591.193,591.193,0,0,1,75.142-17.643,781.354,781.354,0,0,1,81.785-9.393,713.389,713.389,0,0,1,84.209-.792c27.866,1.553,55.637,5.423,79.155,13.129q4.365,1.431,8.491,3.025c.485.186.772-.84.209-1.057-22.276-8.547-49.367-13.274-77.066-15.43-28.164-2.193-57.017-1.924-85.3-.445a797.1,797.1,0,0,0-82.337,8.508,617.417,617.417,0,0,0-75.968,16.678c-23.908,6.961-46.1,15.344-65.613,25.083-2.456,1.225-4.816,2.494-7.133,3.783-.224.124-.062.687.3.5Z" fill="url(#radial-gradient-86)"/>
        <path id="Path_471" data-name="Path 471" d="M-695.029,3555.24a584.522,584.522,0,0,1,59.512-20.067c20.994-5.786,43.016-10.653,65.664-14.647,23.318-4.113,47.347-7.361,71.712-9.573a606.636,606.636,0,0,1,77.2-2.451c12.831.479,25.592,1.48,38.038,3.1,11.588,1.5,23.65,3.373,33.522,6.819a52.363,52.363,0,0,1,6.894,2.942c.535.278.762-.619.383-.816-8.13-4.216-19.163-6.537-30.212-8.3-11.976-1.914-24.332-3.228-36.822-4.007a564.045,564.045,0,0,0-78.119,1.032c-24.875,1.922-49.425,5.025-73.283,8.972-22.944,3.8-45.3,8.462-66.683,14.05a530.392,530.392,0,0,0-60.947,19.674c-2.374.941-4.682,1.92-6.968,2.913-.175.076-.076.44.111.366Z" fill="url(#radial-gradient-87)"/>
        <path id="Path_472" data-name="Path 472" d="M-657.043,3547.291c17.287-5.323,35.035-10.22,53.63-14.358,18.746-4.17,38.122-7.653,57.874-10.481,19.576-2.8,39.527-4.97,59.661-6.545,19.794-1.549,39.871-2.667,59.943-2.406,19.708.256,39.6,1.921,57.477,6.149q3.269.773,6.423,1.654c.558.155.751-.809.193-.963-17.215-4.765-36.725-6.977-56.32-7.6a584.463,584.463,0,0,0-60.044,1.692c-20.357,1.449-40.539,3.5-60.365,6.2-19.665,2.674-38.984,5.978-57.706,9.969-18.825,4.014-37.109,8.7-54.355,14.171-2.2.7-4.365,1.432-6.518,2.17-.185.063-.1.42.107.355Z" fill="url(#radial-gradient-88)"/>
        <path id="Path_473" data-name="Path 473" d="M-620.2,3541.586c6.949-1.569,13.753-3.286,20.724-4.834q10.584-2.352,21.435-4.4c14.5-2.731,29.317-5.056,44.362-6.947q22.319-2.808,45.183-4.36c15.271-1.029,30.668-1.626,46.079-1.773,14.9-.141,30.327.19,44.3,2.994q2.566.515,5.031,1.139c.517.13.674-.764.168-.891-13.36-3.354-28.551-4.136-43.349-4.16-15.477-.025-31,.527-46.351,1.465-15.382.94-30.651,2.321-45.708,4.13-15.019,1.8-29.837,4.042-44.325,6.7-14.531,2.663-28.784,5.726-42.543,9.248-1.728.442-3.409.922-5.082,1.412-.141.042-.1.315.081.274Z" fill="url(#radial-gradient-89)"/>
        <path id="Path_474" data-name="Path 474" d="M-585,3538.074c4.938-.839,9.784-1.8,14.705-2.669q7.518-1.322,15.149-2.481,14.844-2.258,30.034-3.906c20.234-2.2,40.848-3.588,61.54-4.134,6.034-.159,12.108-.307,18.146-.119,2.974.092,5.939.273,8.851.588s5.671.847,8.545,1.211c.4.051.361-.645.05-.733a50.128,50.128,0,0,0-7.3-1.291c-2.642-.321-5.334-.53-8.043-.653-5.371-.244-10.777-.164-16.156-.047q-15.708.34-31.319,1.333c-20.8,1.32-41.368,3.532-61.416,6.557q-8.305,1.254-16.489,2.7c-5.536.974-11.111,1.96-16.432,3.2-.245.057-.185.508.133.454Z" fill="url(#radial-gradient-90)"/>
        <path id="Path_475" data-name="Path 475" d="M-541.091,3536.687c1.218-.173,2.469-.286,3.694-.456,1.294-.179,2.582-.369,3.877-.545,2.483-.339,4.969-.673,7.47-.98q7.59-.932,15.3-1.608c10.156-.89,20.435-1.455,30.742-1.679q4.395-.094,8.794-.107,2.111-.006,4.222.007a35.214,35.214,0,0,0,4.568-.064.363.363,0,0,0,.331-.336.363.363,0,0,0-.28-.38,24.346,24.346,0,0,0-3.611-.162q-2.111-.012-4.222-.006-3.87.014-7.738.089-7.824.155-15.614.57c-10.442.556-20.8,1.474-30.991,2.732-2.789.344-5.571.708-8.328,1.11q-2.113.309-4.214.643c-1.388.222-2.7.518-4.066.763-.216.039-.134.436.069.408Z" fill="url(#radial-gradient-91)"/>
      </g>
      <g id="Group_122" data-name="Group 122">
        <g id="Group_121" data-name="Group 121">
          <path id="Path_476" data-name="Path 476" d="M-943,3548.219c9.892-7.411,23.595-13.263,37.9-18.546,14.774-5.454,30.3-10.411,46.29-14.956,32.244-9.163,66.322-16.653,100.782-23.547,35.93-7.187,72.445-14.405,110.914-17.507a583.45,583.45,0,0,1,111.509,1.8,470.433,470.433,0,0,1,51.851,8.573c14.23,3.269,28.2,7.6,37.458,13.982a31.941,31.941,0,0,1,5.764,5.007c.538.6,1.036-.573.748-.894-6.342-7.042-18.206-12.255-31.494-16.108-14.779-4.286-31.275-7.22-47.681-9.591a580.842,580.842,0,0,0-112.451-4.955c-39.22,2.069-76.237,8.677-112.656,15.808-35.012,6.855-69.76,14.158-102.854,23.059-16.615,4.469-32.812,9.333-48.256,14.727-14.483,5.059-28.987,10.484-40.373,17.25a74.2,74.2,0,0,0-7.8,5.3c-.21.164.04.833.35.6Z" fill="url(#radial-gradient-92)"/>
          <path id="Path_477" data-name="Path 477" d="M-942.674,3553.789a549.872,549.872,0,0,1,81.086-31.909,924.277,924.277,0,0,1,92.46-23.124,1066.53,1066.53,0,0,1,107.764-16.269c36.889-3.524,74.878-4.769,112.227-2.337,31.753,2.068,65.429,6.808,88.514,18.354a78.734,78.734,0,0,1,7.6,4.334c.456.3.726-.64.383-.86-19.441-12.49-50.692-18.538-81.219-21.417-37.284-3.515-75.825-3.053-113.2-.11a1012.9,1012.9,0,0,0-109.531,15.13c-32.693,6.211-64.524,13.616-94.587,22.489-29.853,8.811-57.909,19.138-82.865,31.095q-4.48,2.146-8.786,4.375c-.116.061-.032.339.149.249Z" fill="url(#radial-gradient-93)"/>
          <path id="Path_478" data-name="Path 478" d="M-948.979,3565.092a589.259,589.259,0,0,1,76.97-33,776.245,776.245,0,0,1,88.321-24.694,929.708,929.708,0,0,1,97.112-15.771,989.649,989.649,0,0,1,100.88-5.875c36.976-.258,77.126,1.558,106.555,13.772a88.8,88.8,0,0,1,9.293,4.489c.555.31.82-.682.418-.905-25.018-13.862-63.841-17.794-99.919-18.253A961.212,961.212,0,0,0-673.8,3489.4a944.854,944.854,0,0,0-97.721,14.611,784.574,784.574,0,0,0-90.558,23.948,577.532,577.532,0,0,0-78.364,32.234c-2.973,1.507-5.866,3.05-8.719,4.611-.136.074-.033.4.179.293Z" fill="url(#radial-gradient-94)"/>
          <path id="Path_479" data-name="Path 479" d="M-956.946,3577.465c23.935-11.617,48.757-22.735,75.478-32.794a809.611,809.611,0,0,1,84.066-26.513,817.686,817.686,0,0,1,97.082-18.691,808.2,808.2,0,0,1,103.321-6.9c16.9-.021,33.967.419,50.663,1.762,15.552,1.251,31.081,3.443,44.5,7.615q4.919,1.53,9.338,3.4c.392.165.669-.748.183-.951-24.728-10.35-59.646-12.107-90.832-12.642a792.729,792.729,0,0,0-104.923,5.322,823.4,823.4,0,0,0-98.449,17.556,801.242,801.242,0,0,0-85.827,25.951,799.566,799.566,0,0,0-75.962,32.251c-2.974,1.447-5.872,2.933-8.767,4.419-.1.052-.029.292.131.214Z" fill="url(#radial-gradient-95)"/>
          <path id="Path_480" data-name="Path 480" d="M-956.29,3586.755c23.906-11,48.56-21.6,74.445-31.462,25.852-9.849,52.908-18.955,81.375-26.884a835.078,835.078,0,0,1,91.454-20.062,787.842,787.842,0,0,1,97.414-9.6c16.047-.558,32.274-.672,48.314,0,15.7.66,31.484,2.2,45.679,5.673q5.043,1.232,9.721,2.778c.418.138.63-.725.159-.88-26.4-8.65-60.3-9.294-90.994-8.769a771.6,771.6,0,0,0-98.322,8.14,835,835,0,0,0-91.756,18.777c-29.076,7.671-56.745,16.606-83.082,26.37-26.318,9.758-51.394,20.33-75.473,31.392q-4.539,2.087-9.037,4.192c-.164.077-.045.4.1.334Z" fill="url(#radial-gradient-96)"/>
          <path id="Path_481" data-name="Path 481" d="M-952.239,3595.648c23.1-10.013,46.278-19.987,70.314-29.46,24.1-9.5,49.048-18.518,75.215-26.6a812.715,812.715,0,0,1,81.115-20.654,733.974,733.974,0,0,1,88.207-12.177c14.907-1.121,29.968-1.76,45.049-1.851s30.6.123,45.19,2.179q5.68.8,11.055,2.014c.5.114.63-.74.155-.847-13.833-3.118-29.113-3.959-44.172-4.167-15.213-.21-30.453.154-45.565,1.028a718.953,718.953,0,0,0-87.965,10.7,798.851,798.851,0,0,0-82.65,19.831c-26.613,7.878-51.931,16.767-76.326,26.212-24.461,9.471-48.193,19.449-71.242,29.739l-8.465,3.78c-.137.061-.046.33.085.273Z" fill="url(#radial-gradient-97)"/>
          <path id="Path_482" data-name="Path 482" d="M-946.47,3603.99q29.191-14.588,61.49-27.544c21.294-8.535,43.559-16.492,66.622-23.832q34.911-11.11,72.231-20.246a768.488,768.488,0,0,1,80.2-15.458c13.819-1.852,27.887-3.265,42.107-4.123,14.307-.864,29.065-1.374,43.367-.239q5.64.447,11.1,1.28c.63.1.7-.855.172-.935-14.066-2.154-28.913-2.191-43.474-1.622-14.289.559-28.466,1.712-42.41,3.337A729.478,729.478,0,0,0-735.886,3529c-25.4,5.9-50.04,12.633-73.828,19.981q-35.375,10.928-68.043,23.789-32.415,12.762-61.747,27.279c-2.415,1.194-4.784,2.41-7.159,3.622-.154.079-.039.433.193.317Z" fill="url(#radial-gradient-98)"/>
          <path id="Path_483" data-name="Path 483" d="M-937.672,3609.337c9.008-4.259,17.912-8.557,27.232-12.654q13.8-6.069,28.3-11.743c19.34-7.584,39.492-14.656,60.188-21.315,20.65-6.644,41.859-12.863,63.435-18.75,22.16-6.046,44.782-11.777,68.553-16.147a426.5,426.5,0,0,1,73.412-7.466q4.751-.04,9.5.054c.552.01.554-.933-.047-.944a405.265,405.265,0,0,0-74.3,5.92c-24.007,4.01-46.847,9.534-69.084,15.483-21.88,5.852-43.384,12.057-64.351,18.67-20.932,6.6-41.3,13.638-60.887,21.177-19.434,7.482-38.079,15.468-55.619,24.01q-3.35,1.63-6.568,3.318c-.183.1-.06.528.241.386Z" fill="url(#radial-gradient-99)"/>
          <path id="Path_484" data-name="Path 484" d="M-926.906,3614.138A355.382,355.382,0,0,1-883,3592.648c15.8-6.554,32.436-12.594,49.377-18.41,17.477-6,35.125-11.9,53.216-17.443,18.263-5.6,37.045-10.812,56.615-15.227,19.678-4.439,40.766-8.583,62.735-8.661q4.071-.014,8.127.17c.56.025.594-.921-.047-.949-21.961-.968-43.372,2.624-63.245,6.846-19.923,4.234-39.033,9.339-57.563,14.883-18.384,5.5-36.26,11.413-53.93,17.449-17.068,5.831-33.909,11.839-49.94,18.348a367.742,367.742,0,0,0-44.512,21.188c-1.684.968-3.332,1.953-4.958,2.945-.155.094-.014.488.218.351Z" fill="url(#radial-gradient-100)"/>
          <path id="Path_485" data-name="Path 485" d="M-921.019,3619.515c12.125-6.927,24.87-13.58,38.385-19.857,14.263-6.623,29.294-12.849,44.87-18.711,14.772-5.559,30.058-10.788,45.722-15.721,15.915-5.013,32.171-9.884,49.05-14.076,17.107-4.249,35.477-7.7,54.78-8.276q3.508-.1,7.025-.077c.611,0,.593-.958-.048-.961-19.5-.112-38.346,2.893-55.821,6.942-17.437,4.04-34.059,9-50.352,14.05-15.987,4.952-31.583,10.211-46.66,15.812-14.982,5.566-29.437,11.471-43.22,17.743-13.9,6.324-27.146,13.008-39.418,20.1-1.533.887-3.035,1.787-4.531,2.689-.154.093-.018.476.218.341Z" fill="url(#radial-gradient-101)"/>
          <path id="Path_486" data-name="Path 486" d="M-916.335,3625.074q18.554-9.7,38.375-18.792,19.956-9.112,41.138-17.55c14.266-5.678,28.944-11.115,43.82-16.4,13.765-4.891,27.883-9.58,42.857-13.537a313.957,313.957,0,0,1,47.073-8.865q3.065-.326,6.156-.584a.473.473,0,0,0,.431-.495.473.473,0,0,0-.479-.449,305.5,305.5,0,0,0-47.552,8.009c-15.29,3.786-29.669,8.4-43.608,13.268q-22.38,7.82-43.871,16.257-21.167,8.324-41.116,17.359-20.112,9.122-38.917,18.9-2.311,1.206-4.6,2.422c-.228.121-.042.629.293.454Z" fill="url(#radial-gradient-102)"/>
          <path id="Path_487" data-name="Path 487" d="M-854.693,3603.675c3.9-1.956,7.4-4.115,11.171-6.133q5.71-3.054,11.733-5.964,12.055-5.824,25.271-11.026,13.124-5.166,27.226-9.686c9.567-3.057,19.449-5.9,29.64-8.427a219.411,219.411,0,0,1,33.713-5.929q2.228-.2,4.471-.331a.472.472,0,0,0,.415-.251.473.473,0,0,0-.024-.484.473.473,0,0,0-.438-.208,204.911,204.911,0,0,0-34.022,5.291c-10.448,2.451-20.526,5.314-30.292,8.365-9.561,2.988-18.828,6.213-27.713,9.669q-13.262,5.158-25.426,10.955c-8.142,3.879-15.947,7.952-23.185,12.244-.94.557-1.818,1.129-2.664,1.721-.07.049-.032.274.124.2Z" fill="url(#radial-gradient-103)"/>
        </g>
        <path id="Path_488" data-name="Path 488" d="M-812.331,3588.434c4.591-2,8.991-4.106,13.591-6.1,4.629-2.011,9.369-3.961,14.27-5.809a216.934,216.934,0,0,1,31.2-9.243q4.606-.985,9.383-1.762c3.375-.545,6.8-.952,10.247-1.375a.386.386,0,0,0,.347-.4.385.385,0,0,0-.385-.365,159.617,159.617,0,0,0-17.287,2.692c-5.648,1.155-11.1,2.538-16.346,4.082a262.58,262.58,0,0,0-29.819,10.955c-5.248,2.257-10.483,4.557-15.345,7.016-.134.068-.019.388.147.315Z" fill="url(#radial-gradient-104)"/>
      </g>
    </g>
  </g>
</svg>
