<svg xmlns="http://www.w3.org/2000/svg" width="104.249" height="188.712" viewBox="0 0 104.249 188.712">
  <g id="deer-1" transform="translate(0 0.42)">
    <g id="Group_3382" data-name="Group 3382" transform="translate(0)">
      <g id="Group_3380" data-name="Group 3380" transform="translate(0 46.366)">
        <path id="Path_857" data-name="Path 857" d="M400.71,535.655c3.092,14.372,9.02,31.875-25.033,47.371a13.526,13.526,0,0,1-5.052,1.193c.4-.558.765-1.115,1.094-1.652l.01-.01a.35.35,0,0,0,.059-.1c.04-.069.109-.169.209-.318.846-1.214,3.839-5.033,11.587-11.129,6.653-5.232,10.92-13.864,13.258-22.228a61.969,61.969,0,0,0,1.989-10.444,96.152,96.152,0,0,1,1.88-10.929l.149.029A18.062,18.062,0,0,0,400.71,535.655Z" transform="translate(-309.79 -507.172)" fill="#d3ae3e"/>
        <path id="Path_858" data-name="Path 858" d="M388.193,510.219c.179,6.275-8.165.128-8.165.128a20.319,20.319,0,0,1,2.109-1.66Q385,509.537,388.193,510.219Z" transform="translate(-309.029 -508.687)" fill="#d3ae3e"/>
        <path id="Path_859" data-name="Path 859" d="M368.9,550.148c-.079.119-.836,1.243-1.909,3.053h-.011a49.272,49.272,0,0,0-13.506-.775,41.073,41.073,0,0,0-8.175,1.5l-1.472-3.2C350.545,549.043,358.83,548.487,368.9,550.148Z" transform="translate(-311.958 -505.413)" fill="#d3ae3e"/>
        <path id="Path_860" data-name="Path 860" d="M315.028,558.428c11.885-3.063,9.209,4.188,9.209,4.188a8.089,8.089,0,0,1-.417.974c-.189.229-.358.438-.518.637a6.455,6.455,0,0,0-.725,1.193c-2.984,2.815-6.754-3.182-8.125-5.668A.926.926,0,0,1,315.028,558.428Z" transform="translate(-314.345 -504.723)" fill="#cba83f"/>
        <path id="Path_861" data-name="Path 861" d="M322.686,563.784c.16-.2.329-.408.518-.637a5.667,5.667,0,0,1-1.243,1.83A6.449,6.449,0,0,1,322.686,563.784Z" transform="translate(-313.728 -504.28)" fill="#cba83f"/>
      </g>
      <g id="Group_3381" data-name="Group 3381" transform="translate(6.513)">
        <path id="Path_862" data-name="Path 862" d="M390.324,555.627a13.045,13.045,0,0,0,2.964-5.759c.119-.488.239-1,.338-1.551,2.069-11.238,1.949-28.842-2.536-37.266,0,0,2.2-5.729,10.969-3.352a27.159,27.159,0,0,1,4.744,1.83,46.206,46.206,0,0,1,5.033,2.864c.059.04.129.09.2.13" transform="translate(-314.709 -462.448)" fill="none" stroke="#cba83f" stroke-linecap="round" stroke-linejoin="round" stroke-width="0.6"/>
        <path id="Path_863" data-name="Path 863" d="M323.111,564.28A40.189,40.189,0,0,1,338.149,553.2a45.661,45.661,0,0,1,7.359-2.477c6.714-1.681,15-2.237,25.073-.576a98.639,98.639,0,0,1,16.39,4.236,8.214,8.214,0,0,0,7.718-1.173,9.449,9.449,0,0,0,1.065-.965" transform="translate(-320.149 -459.047)" fill="none" stroke="#cba83f" stroke-linecap="round" stroke-linejoin="round" stroke-width="0.6"/>
        <path id="Path_864" data-name="Path 864" d="M354.019,465.792s-3.5,18.15,9.557,32.621a44.3,44.3,0,0,0,14.132,10.263,63.1,63.1,0,0,0,9.171,3.482q2.863.849,6.056,1.532c1.2.258,2.447.486,3.73.706.188.029.387.069.586.1a111.086,111.086,0,0,0,11.816,1.263c2.606.149,5.341.229,8.186.229,0,0-9.926,6.515-12.412,16.44a18.062,18.062,0,0,0-.149,8.215c3.093,14.372,9.02,31.875-25.033,47.371a13.523,13.523,0,0,1-5.052,1.193c-2.964.079-7.35-.836-13.963-4.566-1.174-.666-2.288-1.272-3.323-1.83-9.846-5.291-13.516-6.026-13.516-6.026a29.837,29.837,0,0,1-.9,8.016,18.31,18.31,0,0,1-3.142,6.743,12.013,12.013,0,0,1-3.362,2.974,35.82,35.82,0,0,1-5.968-4.038,32.228,32.228,0,0,1-3.123-2.924,23.03,23.03,0,0,1-4.824-7.4,13.958,13.958,0,0,1-.557-1.681,16.261,16.261,0,0,1-.438-2.119,6.3,6.3,0,0,1,.518-3.5" transform="translate(-320.285 -465.792)" fill="none" stroke="#cba83f" stroke-linecap="round" stroke-linejoin="round" stroke-width="0.6"/>
        <path id="Path_865" data-name="Path 865" d="M359.436,479.888s4.356,9.527,1.065,17.385v.01" transform="translate(-317.209 -464.651)" fill="none" stroke="#cba83f" stroke-linecap="round" stroke-linejoin="round" stroke-width="0.6"/>
        <path id="Path_866" data-name="Path 866" d="M373.824,485.132s8.225,11.716-.329,21.98" transform="translate(-316.071 -464.227)" fill="none" stroke="#cba83f" stroke-linecap="round" stroke-linejoin="round" stroke-width="0.6"/>
        <path id="Path_867" data-name="Path 867" d="M386.515,476.768s.417,15.247,14.849,16.192" transform="translate(-315.018 -464.904)" fill="none" stroke="#cba83f" stroke-linecap="round" stroke-linejoin="round" stroke-width="0.6"/>
        <path id="Path_868" data-name="Path 868" d="M392.624,465.792s3.69,4.863,6.306,16.1a94.215,94.215,0,0,1,1.939,11.955c.348,3.441.557,7.23.587,11.4.019,1.79,0,3.66-.06,5.589" transform="translate(-314.523 -465.792)" fill="none" stroke="#cba83f" stroke-linecap="round" stroke-linejoin="round" stroke-width="0.6"/>
        <path id="Path_869" data-name="Path 869" d="M398.458,480.859a5.873,5.873,0,0,0,2.128.368,7.271,7.271,0,0,0,5.479-2.645" transform="translate(-314.051 -464.757)" fill="none" stroke="#cba83f" stroke-linecap="round" stroke-linejoin="round" stroke-width="0.6"/>
        <path id="Path_870" data-name="Path 870" d="M402.624,482.289s5.2,13.078-1.82,21.622" transform="translate(-313.861 -464.457)" fill="none" stroke="#cba83f" stroke-linecap="round" stroke-linejoin="round" stroke-width="0.6"/>
        <path id="Path_871" data-name="Path 871" d="M388.193,510.33c-.01-.21-.029-.438-.05-.677,0,0-.537-4.625-6.007-.855a20.325,20.325,0,0,0-2.109,1.66S388.373,516.6,388.193,510.33Z" transform="translate(-315.543 -462.431)" fill="none" stroke="#cba83f" stroke-linecap="round" stroke-linejoin="round" stroke-width="0.6"/>
        <path id="Path_872" data-name="Path 872" d="M401.185,508.163c-.228,1.124.348,2.069,2.417,2.507a3.11,3.11,0,0,0,2.327-.677c1.214-.975,2.287-3.262,1.492-8.6C407.42,501.39,401.752,505.348,401.185,508.163Z" transform="translate(-313.834 -462.911)" fill="none" stroke="#cba83f" stroke-linecap="round" stroke-linejoin="round" stroke-width="0.6"/>
        <path id="Path_873" data-name="Path 873" d="M327.311,578.439s-.457,3.442-1.124,8.683c-.407,3.182-.885,7.022-1.392,11.159-1.811,15.087-3.869,34-3.362,38.579" transform="translate(-320.291 -456.676)" fill="none" stroke="#cba83f" stroke-linecap="round" stroke-linejoin="round" stroke-width="0.6"/>
        <path id="Path_874" data-name="Path 874" d="M342.542,569.736s-.388-2.04-1.1-4.834c-.159-.617-.329-1.264-.517-1.939a63.8,63.8,0,0,0-2.178-6.485,30.907,30.907,0,0,0-1.721-3.581" transform="translate(-319.023 -458.743)" fill="none" stroke="#cba83f" stroke-linecap="round" stroke-linejoin="round" stroke-width="0.6"/>
        <path id="Path_875" data-name="Path 875" d="M343.822,550.6l.01.01,1.472,3.2,2.218,4.814.975,2.108,7.012,15.217" transform="translate(-318.473 -458.929)" fill="none" stroke="#cba83f" stroke-linecap="round" stroke-linejoin="round" stroke-width="0.6"/>
        <path id="Path_876" data-name="Path 876" d="M367.793,550.063l-.01.011c-.079.119-.836,1.243-1.909,3.053-3.044,5.162-8.6,15.894-8.165,24.695" transform="translate(-317.351 -458.972)" fill="none" stroke="#cba83f" stroke-linecap="round" stroke-linejoin="round" stroke-width="0.6"/>
        <path id="Path_877" data-name="Path 877" d="M322.4,571.846a119.465,119.465,0,0,0,15.087-3.372" transform="translate(-320.206 -457.482)" fill="none" stroke="#cba83f" stroke-linecap="round" stroke-linejoin="round" stroke-width="0.6"/>
        <path id="Path_878" data-name="Path 878" d="M375.306,578.863s-1.751,25.988,9.975,59.275" transform="translate(-315.932 -456.642)" fill="none" stroke="#cba83f" stroke-linecap="round" stroke-linejoin="round" stroke-width="0.6"/>
        <path id="Path_879" data-name="Path 879" d="M371.705,578.338c-.029.05-.05.08-.059.1" transform="translate(-316.221 -456.684)" fill="none" stroke="#cba83f" stroke-linecap="round" stroke-linejoin="round" stroke-width="0.6"/>
        <path id="Path_880" data-name="Path 880" d="M404.983,512.017s-2.5,8.106-4.376,16.64a96.175,96.175,0,0,0-1.88,10.929,61.96,61.96,0,0,1-1.989,10.444c-2.338,8.364-6.6,17-13.258,22.228-7.748,6.1-10.741,9.916-11.587,11.129" transform="translate(-316.201 -462.051)" fill="none" stroke="#cba83f" stroke-linecap="round" stroke-linejoin="round" stroke-width="0.6"/>
        <path id="Path_881" data-name="Path 881" d="M321.887,570.9s5.371-11.915,12.94-11.5a7.631,7.631,0,0,1,3.45,1.045,15.259,15.259,0,0,1,4.386,3.928" transform="translate(-320.248 -458.217)" fill="none" stroke="#cba83f" stroke-linecap="round" stroke-linejoin="round" stroke-width="0.6"/>
        <path id="Path_882" data-name="Path 882" d="M340.63,562.5s1.79-6.794,8.125-2.417a.01.01,0,0,0,.01.01" transform="translate(-318.731 -458.281)" fill="none" stroke="#cba83f" stroke-linecap="round" stroke-linejoin="round" stroke-width="0.6"/>
        <path id="Path_883" data-name="Path 883" d="M340.784,644.146c0-5.65-2.019-26.207-3.61-41.533-.447-4.226-.855-8.055-1.174-11.069-.438-4.088-.725-6.664-.725-6.664" transform="translate(-319.164 -456.155)" fill="none" stroke="#cba83f" stroke-linecap="round" stroke-linejoin="round" stroke-width="0.6"/>
        <path id="Path_884" data-name="Path 884" d="M391.2,552a.03.03,0,0,1-.01.02c-.17.289-2.4,4.127-5.023,8.026-2.316,3.451-4.953,6.953-6.733,8.056" transform="translate(-315.59 -458.816)" fill="none" stroke="#cba83f" stroke-linecap="round" stroke-linejoin="round" stroke-width="0.6"/>
        <path id="Path_885" data-name="Path 885" d="M376.265,565.641l.01.01a20.826,20.826,0,0,0,3.392,1.422,25.036,25.036,0,0,0,3.461.845" transform="translate(-315.847 -457.712)" fill="none" stroke="#cba83f" stroke-linecap="round" stroke-linejoin="round" stroke-width="0.6"/>
        <line id="Line_67" data-name="Line 67" x2="12.78" y2="1.144" transform="translate(57.802 100.082)" fill="none" stroke="#cba83f" stroke-linecap="round" stroke-linejoin="round" stroke-width="0.6"/>
        <path id="Path_886" data-name="Path 886" d="M333.858,559.979A25.54,25.54,0,0,1,339,556.548a36.945,36.945,0,0,1,7.11-2.855,41.1,41.1,0,0,1,8.175-1.5,49.286,49.286,0,0,1,13.506.775h.011c.3.08,5.877,1.532,9.279,5.928a12.381,12.381,0,0,1,2.625,7.857c-.01,3.551-1.312,7.957-4.734,13.4-.1.149-.169.249-.209.318a.354.354,0,0,1-.059.1l-.01.01c-.329.537-.7,1.094-1.094,1.652v.01a243.243,243.243,0,0,0,1.094,61.951" transform="translate(-319.279 -458.813)" fill="none" stroke="#cba83f" stroke-linecap="round" stroke-linejoin="round" stroke-width="0.6"/>
        <path id="Path_887" data-name="Path 887" d="M353.2,552.18s-3.66,4.943-5.957,6.315" transform="translate(-318.195 -458.801)" fill="none" stroke="#cba83f" stroke-linecap="round" stroke-linejoin="round" stroke-width="0.6"/>
        <path id="Path_888" data-name="Path 888" d="M341.449,575.845s-7.837,1.173-2.943,6.793" transform="translate(-319.033 -456.886)" fill="none" stroke="#cba83f" stroke-linecap="round" stroke-linejoin="round" stroke-width="0.6"/>
        <path id="Path_889" data-name="Path 889" d="M326.266,586.472l-5.4,3.213a1.007,1.007,0,0,0-.329,1.421l4.337,6.524.01.01" transform="translate(-320.37 -456.026)" fill="none" stroke="#cba83f" stroke-linecap="round" stroke-linejoin="round" stroke-width="0.6"/>
        <path id="Path_890" data-name="Path 890" d="M336.392,591.045l-5.32,2.118a1.013,1.013,0,0,0-.359,1.631l6.843,7.32" transform="translate(-319.556 -455.656)" fill="none" stroke="#cba83f" stroke-linecap="round" stroke-linejoin="round" stroke-width="0.6"/>
        <path id="Path_891" data-name="Path 891" d="M337.611,560.415a29.875,29.875,0,0,1-.717,8.712c-.954,4.714-2.993,10.244-7.141,13.694" transform="translate(-319.611 -458.135)" fill="none" stroke="#cba83f" stroke-linecap="round" stroke-linejoin="round" stroke-width="0.6"/>
      </g>
    </g>
  </g>
</svg>
