<svg xmlns="http://www.w3.org/2000/svg" width="71.12" height="126.987" viewBox="0 0 71.12 126.987">
  <g id="deer-2" transform="translate(0.416 0.42)">
    <g id="Group_3385" data-name="Group 3385" transform="translate(7.125 31.57)">
      <path id="Path_892" data-name="Path 892" d="M1401.862,546.058c-2.106,9.785-6.143,21.71,17.044,32.254.007,0,.007,0,.014.007a9.14,9.14,0,0,0,3.427.813c-.264-.379-.515-.758-.752-1.124,0,0-.007-.013-.02-.034s-.054-.088-.109-.169c-.487-.718-2.472-3.366-7.943-7.673-4.531-3.562-7.442-9.44-9.027-15.142a41.831,41.831,0,0,1-1.354-7.1,63.412,63.412,0,0,0-1.125-6.7l-.1.021A12.127,12.127,0,0,1,1401.862,546.058Z" transform="translate(-1400.19 -526.663)" fill="#d3ae3e"/>
      <path id="Path_893" data-name="Path 893" d="M1409.6,522.5c-.129,4.28,5.56.095,5.56.095a15.113,15.113,0,0,0-1.442-1.138C1412.414,521.848,1411.045,522.193,1409.6,522.5Z" transform="translate(-1399.92 -521.455)" fill="#d3ae3e"/>
      <path id="Path_894" data-name="Path 894" d="M1383.914,564.156a28.363,28.363,0,0,1,5.553,1.023l.007-.007,1-2.173a41.948,41.948,0,0,0-17.079-.4s.535.779,1.3,2.086a.02.02,0,0,1,.013-.007A33.293,33.293,0,0,1,1383.914,564.156Z" transform="translate(-1348.599 -532.139)" fill="#d3ae3e"/>
      <path id="Path_895" data-name="Path 895" d="M1375.052,566.347l-6.623,14.749,1.714-.745a42.876,42.876,0,0,1,6.778-2.932l.237-.1.7-2.458.021-.081c.054-.237.122-.495.189-.759.278-1.09.637-2.357,1.063-3.629a.176.176,0,0,1,.013-.048l.576-2.031-4.6-1.95c-.007-.007-.021-.007-.041-.013h-.02Z" transform="translate(-1334.185 -533.307)" fill="#d3ae3e"/>
      <path id="Path_896" data-name="Path 896" d="M1372.229,584.322l6.778-2.932A42.869,42.869,0,0,0,1372.229,584.322Z" transform="translate(-1336.271 -537.278)" fill="#d3ae3e"/>
      <path id="Path_897" data-name="Path 897" d="M1374.741,566.337v.007h.013Z" transform="translate(-1333.867 -533.304)" fill="#d3ae3e"/>
      <path id="Path_898" data-name="Path 898" d="M1370.609,577.51l.237-.812a.185.185,0,0,0-.048.054C1370.73,577.016,1370.663,577.274,1370.609,577.51Z" transform="translate(-1326.918 -536.04)" fill="#d3ae3e"/>
      <path id="Path_899" data-name="Path 899" d="M1369.229,575.469a.185.185,0,0,1,.048-.054l1.016-3.575C1369.865,573.113,1369.507,574.379,1369.229,575.469Z" transform="translate(-1325.348 -534.757)" fill="#d3ae3e"/>
      <path id="Path_900" data-name="Path 900" d="M1350.357,570.957c-8.1-2.078-6.271,2.851-6.271,2.851.095.244.19.474.292.677.121.149.237.291.339.427a3.569,3.569,0,0,1,.481.792c2.031,1.964,4.612-2.14,5.553-3.84A.637.637,0,0,0,1350.357,570.957Z" transform="translate(-1287.245 -534.389)" fill="#cba83f"/>
      <path id="Path_901" data-name="Path 901" d="M1351.892,576.361c-.1-.135-.217-.277-.339-.427a4.072,4.072,0,0,0,.819,1.219A3.57,3.57,0,0,0,1351.892,576.361Z" transform="translate(-1294.42 -535.838)" fill="#cba83f"/>
    </g>
    <g id="Group_3386" data-name="Group 3386" transform="translate(0)">
      <path id="Path_902" data-name="Path 902" d="M1434.673,552.926a8.907,8.907,0,0,1-2.025-3.921c-.081-.332-.163-.684-.23-1.056-1.4-7.659-1.32-19.638,1.734-25.374,0,0-1.5-3.9-7.469-2.282a18.415,18.415,0,0,0-3.23,1.246,30.552,30.552,0,0,0-3.433,1.957c-.041.027-.088.054-.129.081" transform="translate(-1419.89 -489.474)" fill="none" stroke="#cba83f" stroke-linecap="round" stroke-linejoin="round" stroke-width="0.6"/>
      <path id="Path_903" data-name="Path 903" d="M1402.136,572.235a27.375,27.375,0,0,0-10.253-7.551,30.525,30.525,0,0,0-5-1.686,41.948,41.948,0,0,0-17.079-.4,67.262,67.262,0,0,0-11.153,2.885,5.6,5.6,0,0,1-5.255-.8,6.5,6.5,0,0,1-.725-.656" transform="translate(-1337.877 -500.569)" fill="none" stroke="#cba83f" stroke-linecap="round" stroke-linejoin="round" stroke-width="0.6"/>
      <path id="Path_904" data-name="Path 904" d="M1394.063,478.56s2.377,12.352-6.508,22.212a30.207,30.207,0,0,1-9.629,6.989,41.49,41.49,0,0,1-6.244,2.37c-1.3.393-2.668.738-4.117,1.043q-1.229.264-2.539.488c-.129.02-.264.047-.4.068a75.817,75.817,0,0,1-8.045.86q-2.662.152-5.579.156s7.252,4.76,8.613,11.925a12.121,12.121,0,0,1-.054,4.855c-2.106,9.785-6.143,21.71,17.044,32.254.007,0,.007,0,.014.007a9.139,9.139,0,0,0,3.427.813c2.017.054,5-.562,9.508-3.108.8-.453,1.557-.867,2.262-1.246.724-.393,1.4-.745,2.031-1.07a42.869,42.869,0,0,1,6.778-2.932c.271-.074.393-.1.393-.1a20.275,20.275,0,0,0,.616,5.451,12.483,12.483,0,0,0,2.14,4.6,8.157,8.157,0,0,0,2.289,2.025,24.534,24.534,0,0,0,4.063-2.756,21.834,21.834,0,0,0,2.126-1.984,14.913,14.913,0,0,0,3.657-6.2,10.749,10.749,0,0,0,.3-1.436,4.229,4.229,0,0,0-.366-2.4" transform="translate(-1350.764 -478.56)" fill="none" stroke="#cba83f" stroke-linecap="round" stroke-linejoin="round" stroke-width="0.6"/>
      <path id="Path_905" data-name="Path 905" d="M1390.564,492.665s-2.966,6.481-.725,11.83v.007" transform="translate(-1353.048 -482.284)" fill="none" stroke="#cba83f" stroke-linecap="round" stroke-linejoin="round" stroke-width="0.6"/>
      <path id="Path_906" data-name="Path 906" d="M1405.487,497.9s-5.6,7.97.217,14.966l.007.007" transform="translate(-1378.541 -483.666)" fill="none" stroke="#cba83f" stroke-linecap="round" stroke-linejoin="round" stroke-width="0.6"/>
      <path id="Path_907" data-name="Path 907" d="M1426.191,489.546s-.284,10.375-10.11,11.018" transform="translate(-1408.605 -481.46)" fill="none" stroke="#cba83f" stroke-linecap="round" stroke-linejoin="round" stroke-width="0.6"/>
      <path id="Path_908" data-name="Path 908" d="M1428.211,478.56s-2.513,3.311-4.286,10.971a63.931,63.931,0,0,0-1.321,8.133c-.237,2.343-.379,4.93-.4,7.768q-.021,1.838.04,3.806" transform="translate(-1415.127 -478.56)" fill="none" stroke="#cba83f" stroke-linecap="round" stroke-linejoin="round" stroke-width="0.6"/>
      <path id="Path_909" data-name="Path 909" d="M1433.2,492.91a4,4,0,0,1-1.449.25,4.952,4.952,0,0,1-3.732-1.8" transform="translate(-1424.406 -481.939)" fill="none" stroke="#cba83f" stroke-linecap="round" stroke-linejoin="round" stroke-width="0.6"/>
      <path id="Path_910" data-name="Path 910" d="M1431.633,495.067s-3.542,8.9,1.239,14.722" transform="translate(-1425.802 -482.918)" fill="none" stroke="#cba83f" stroke-linecap="round" stroke-linejoin="round" stroke-width="0.6"/>
      <path id="Path_911" data-name="Path 911" d="M1409.6,522.138c.007-.142.014-.3.034-.461,0,0,.366-3.142,4.083-.582a15.133,15.133,0,0,1,1.442,1.138S1409.468,526.417,1409.6,522.138Z" transform="translate(-1392.795 -489.524)" fill="none" stroke="#cba83f" stroke-linecap="round" stroke-linejoin="round" stroke-width="0.6"/>
      <path id="Path_912" data-name="Path 912" d="M1435.139,518.777c.156.765-.244,1.4-1.646,1.7a2.133,2.133,0,0,1-1.585-.453c-.826-.657-1.564-2.221-1.016-5.864C1430.893,514.159,1434.76,516.861,1435.139,518.777Z" transform="translate(-1428.346 -487.958)" fill="none" stroke="#cba83f" stroke-linecap="round" stroke-linejoin="round" stroke-width="0.6"/>
      <path id="Path_913" data-name="Path 913" d="M1351.45,591.217s.332,2.391.793,5.925c.277,2.173.616,4.781.948,7.537,1.07,8.7,2.174,18.852,1.876,21.425" transform="translate(-1289.962 -508.302)" fill="none" stroke="#cba83f" stroke-linecap="round" stroke-linejoin="round" stroke-width="0.6"/>
      <path id="Path_914" data-name="Path 914" d="M1366.6,570.162c.23-.69.488-1.381.759-2.052a19.886,19.886,0,0,1,1.164-2.438v-.007" transform="translate(-1314.516 -501.557)" fill="none" stroke="#cba83f" stroke-linecap="round" stroke-linejoin="round" stroke-width="0.6"/>
      <path id="Path_915" data-name="Path 915" d="M1369.229,576.228c.054-.237.121-.495.189-.759.278-1.09.637-2.357,1.063-3.629" transform="translate(-1318.412 -503.187)" fill="none" stroke="#cba83f" stroke-linecap="round" stroke-linejoin="round" stroke-width="0.6"/>
      <path id="Path_916" data-name="Path 916" d="M1370.959,580.37s.19-.988.542-2.458" transform="translate(-1320.705 -504.79)" fill="none" stroke="#cba83f" stroke-linecap="round" stroke-linejoin="round" stroke-width="0.6"/>
      <path id="Path_917" data-name="Path 917" d="M1381.347,563.375v.007l-1,2.174-.007.007-1.5,3.271-5.438,11.8" transform="translate(-1332.346 -500.952)" fill="none" stroke="#cba83f" stroke-linecap="round" stroke-linejoin="round" stroke-width="0.6"/>
      <path id="Path_918" data-name="Path 918" d="M1387.249,562.841s.535.779,1.3,2.086c2.078,3.514,5.865,10.821,5.566,16.814" transform="translate(-1355.326 -500.811)" fill="none" stroke="#cba83f" stroke-linecap="round" stroke-linejoin="round" stroke-width="0.6"/>
      <path id="Path_919" data-name="Path 919" d="M1410.176,591.631v.007c.027.44.846,15.657-5.4,35.065" transform="translate(-1384.32 -508.412)" fill="none" stroke="#cba83f" stroke-linecap="round" stroke-linejoin="round" stroke-width="0.6"/>
      <path id="Path_920" data-name="Path 920" d="M1401.212,591.171a.387.387,0,0,1,.02.034" transform="translate(-1372.702 -508.29)" fill="none" stroke="#cba83f" stroke-linecap="round" stroke-linejoin="round" stroke-width="0.6"/>
      <path id="Path_921" data-name="Path 921" d="M1401.387,524.795s1.842,5.993,3.135,12.061a63.47,63.47,0,0,1,1.125,6.7,41.855,41.855,0,0,0,1.354,7.1c1.585,5.7,4.5,11.579,9.027,15.142,5.471,4.307,7.456,6.955,7.943,7.673" transform="translate(-1395.57 -490.766)" fill="none" stroke="#cba83f" stroke-linecap="round" stroke-linejoin="round" stroke-width="0.6"/>
      <path id="Path_922" data-name="Path 922" d="M1365.6,580a.02.02,0,0,0-.007-.013c-.169-.372-3.778-8.092-8.8-7.821a5.289,5.289,0,0,0-2.357.711,10.318,10.318,0,0,0-2.932,2.621.183.183,0,0,0-.048.054" transform="translate(-1300.448 -503.272)" fill="none" stroke="#cba83f" stroke-linecap="round" stroke-linejoin="round" stroke-width="0.6"/>
      <path id="Path_923" data-name="Path 923" d="M1364.84,634.05c0-3.325,1.206-15.067,2.207-24.325.312-2.851.609-5.465.846-7.531.312-2.77.515-4.537.515-4.537" transform="translate(-1313.109 -510.003)" fill="none" stroke="#cba83f" stroke-linecap="round" stroke-linejoin="round" stroke-width="0.6"/>
      <path id="Path_924" data-name="Path 924" d="M1409.014,564.773l.007.007c.163.284,5.4,9.331,8,10.95" transform="translate(-1394.231 -501.321)" fill="none" stroke="#cba83f" stroke-linecap="round" stroke-linejoin="round" stroke-width="0.6"/>
      <path id="Path_925" data-name="Path 925" d="M1410.5,578.409l-.006.007a13.687,13.687,0,0,1-2.316.969,16.944,16.944,0,0,1-2.349.576" transform="translate(-1385.373 -504.921)" fill="none" stroke="#cba83f" stroke-linecap="round" stroke-linejoin="round" stroke-width="0.6"/>
      <path id="Path_926" data-name="Path 926" d="M1397.637,565.938a28.367,28.367,0,0,0-5.553-1.023,33.293,33.293,0,0,0-9.2.522.02.02,0,0,0-.013.007c-.319.081-8.127,2.126-8.1,9.379.007,2.438.914,5.472,3.277,9.217.054.081.088.135.109.169a.146.146,0,0,1,.02.034c.237.366.488.745.752,1.124a165.542,165.542,0,0,1-.752,42.188" transform="translate(-1349.644 -501.328)" fill="none" stroke="#cba83f" stroke-linecap="round" stroke-linejoin="round" stroke-width="0.6"/>
      <path id="Path_927" data-name="Path 927" d="M1374.754,566.347h-.013" transform="translate(-1326.742 -501.736)" fill="none" stroke="#cba83f" stroke-linecap="round" stroke-linejoin="round" stroke-width="0.6"/>
      <path id="Path_928" data-name="Path 928" d="M1371.712,570.625a17.234,17.234,0,0,0-3.5-2.33,25.576,25.576,0,0,0-4.788-1.93" transform="translate(-1315.369 -501.741)" fill="none" stroke="#cba83f" stroke-linecap="round" stroke-linejoin="round" stroke-width="0.6"/>
      <path id="Path_929" data-name="Path 929" d="M1376.811,564.948l.007.007c.149.2,2.533,3.393,4.049,4.294" transform="translate(-1334.378 -501.367)" fill="none" stroke="#cba83f" stroke-linecap="round" stroke-linejoin="round" stroke-width="0.6"/>
      <path id="Path_930" data-name="Path 930" d="M1366.463,588.613s5.337.806,2,4.632" transform="translate(-1315.457 -507.615)" fill="none" stroke="#cba83f" stroke-linecap="round" stroke-linejoin="round" stroke-width="0.6"/>
      <path id="Path_931" data-name="Path 931" d="M1349.936,599.249l.027.014,3.65,2.167a.694.694,0,0,1,.224.975l-2.926,4.4-.034.054" transform="translate(-1287.682 -510.423)" fill="none" stroke="#cba83f" stroke-linecap="round" stroke-linejoin="round" stroke-width="0.6"/>
      <path id="Path_932" data-name="Path 932" d="M1360.8,603.822l3.616,1.436a.694.694,0,0,1,.251,1.117l-4.666,4.984" transform="translate(-1306 -511.63)" fill="none" stroke="#cba83f" stroke-linecap="round" stroke-linejoin="round" stroke-width="0.6"/>
      <path id="Path_933" data-name="Path 933" d="M1359.377,573.183c-.169.055-.332,10.531,5.357,15.257" transform="translate(-1305.372 -503.541)" fill="none" stroke="#cba83f" stroke-linecap="round" stroke-linejoin="round" stroke-width="0.6"/>
    </g>
  </g>
</svg>
