<svg xmlns="http://www.w3.org/2000/svg" xmlns:xlink="http://www.w3.org/1999/xlink" width="703" height="95.733" viewBox="0 0 703 95.733">
  <defs>
    <clipPath id="clip-path">
      <rect id="Rectangle_1242" data-name="Rectangle 1242" width="703" height="95.733" rx="4" transform="translate(12659 1060.23)" fill="none" stroke="#b69040" stroke-width="1"/>
    </clipPath>
  </defs>
  <g id="mountain" transform="translate(-12659 -1060.23)" clip-path="url(#clip-path)">
    <g id="Group_3333" data-name="Group 3333" transform="translate(12057.672 916.438)">
      <g id="Group_3332" data-name="Group 3332" transform="translate(617.328 151.007)">
        <g id="Group_3329" data-name="Group 3329" transform="translate(423.877 36.401)">
          <path id="Path_799" data-name="Path 799" d="M1250.262,204.308c-4.822-.523-6.415-.541-11.175,1.015-3.364,1.1-8.2,2.829-11.97,3.239-3.569.389-8.94-1.49-12.193.126-1.163.58-1.451,2.4-2.754,3.166a28.151,28.151,0,0,1-7.456,1.792c-4.593.134-9.813-2.947-13.609-4.779-7.726-3.731-13.607-6.6-23.017-6.271-3.97.138-6.6,1.522-10.322,1.713-4.635.237-10.912-1.552-15.419-2.073-8.253-.953-15.533.407-23.184-.438-8.429-.93-16.635.2-24.594-2.59-3.575-1.253-6.741-3.233-10.707-3.508-4.072-.284-9.1,1.07-13.024,1.784-4.7.853-6.184,2.629-10.318.807-1.431-.63-2.529-1.861-4.035-2.24-2.619-.659-5.636.411-8.32-.432-3.668-1.153-3.92-3.547-8.237-2.7-1.538.3-3.141,1.64-4.868,2.063-1.99.486-3.644,0-5.578,1-1.879.967-2.244,2.144-4.289,2.959a36.575,36.575,0,0,1-6.869,1.084c-4.1-.168-6.536-3.8-11.179-3.263-3.573.411-7.47,2.533-10.782,3.516a14.648,14.648,0,0,0-2.162.912,29.956,29.956,0,0,0-6.028-.746l-22.833-4.422c-5.493-1.064-14.607-4.609-20.026-2.138-1.7.776-1.97,1.66-4.094,1.771-2.329.122-4.5-1.222-6.905-.88a10.789,10.789,0,0,0-3.356,1.287c-7.979,3.7-15.932,7.373-24.053,10.758a3.55,3.55,0,0,1-3.326.087c-8.865-3.139-17.606-6.935-26.145-10.648-5.626-2.444-11.218-5.292-17-7.391-1.956-.709-3.829-.867-5.825-1.409-1.372-.373-6.6-3.608-7.681-3.233-6.786,2.347-12.663,3.721-19.39.823a30.867,30.867,0,0,0-5.034-1.852c.215.31.472.64.764.991a16.607,16.607,0,0,0,1.715,1.826q.128.137,1,1.3c.484.669.829,1.133,1.011,1.411.042.063.269.476.691,1.238.085.164.172.33.27.484-1.867-1.062-3.667-2.144-5.424-3.237-1.875-1.2-3.147-2-3.814-2.434-.444-.28-.831-.527-1.188-.732-.507-.3-.916-.527-1.216-.671a4.737,4.737,0,0,0-1.23-.4c.324.535.7,1.186,1.111,1.958.561,1.021,1.218,2.27,1.982,3.713.109.184.389.578.843,1.186a31.732,31.732,0,0,1,1.972,4.929,19.336,19.336,0,0,0,3.581,2.424c1.265.578,2.4,1.775,3.717,2.183,1.1.341,2.152-.024,3.269.1,3.456.387,7.082,1.911,10.4,2.841a134.225,134.225,0,0,0,21.467,4.663c5.3.584,8.1,3.069,12.444,5.665,4.931,2.949,9.888,5.867,14.927,8.676a137.263,137.263,0,0,0,21.791,10.15v85.852c30.534.707,449.368-2.343,477.558-4.169L1512.5,261.769C1509.949,262.618,1253.73,204.687,1250.262,204.308Z" transform="translate(-815.083 -182.967)" fill="#c8ac70"/>
          <g id="Group_3328" data-name="Group 3328" transform="translate(359.586 20.711)" opacity="0.38">
            <g id="Group_3327" data-name="Group 3327">
              <g id="Group_3326" data-name="Group 3326">
                <path id="Path_800" data-name="Path 800" d="M992.505,201.131c3.16,1.933,12.969,4.321,9.041,10.543a41.591,41.591,0,0,0,10.357,3.65c2.789.5,8.267,1.269,11.076.628,2.851-.647,4.783-3.192,7.551-4.163,3.612-1.269,7.195-1.6,10.766-2.29a8.579,8.579,0,0,1,1.891-3.2c-2.957-3.1-7.179-2.584-10.983-2.584,2.114-1.034,3.38-3.1,5.069-4.135a12.171,12.171,0,0,0-4.153-1.186c-.1.041-.195.073-.288.12-1.165.58-1.453,2.394-2.756,3.166a28.155,28.155,0,0,1-7.456,1.792c-4.59.132-9.813-2.947-13.607-4.779-4.978-2.4-9.193-4.443-14.076-5.507C997.083,196.816,997.379,199.852,992.505,201.131Z" transform="translate(-992.505 -193.186)" fill="#ad8e4a"/>
              </g>
            </g>
          </g>
        </g>
        <path id="Path_801" data-name="Path 801" d="M901.233,330.92c9.53-5.849,15.229-14.136,20-24.894,6.5-14.678,16.119-13.92,29.908-22.114a55.381,55.381,0,0,0,21.978-24.89c1.54-3.439,2.27-13.652,4.69-15.857,3.081-2.807,14.167-1.557,18.277-1.757,13.267-.645,27.541-1.129,38.119-9.165a31.527,31.527,0,0,0,11.429-17.379c.752-3.042.476-7.031-3.409-7.3-1.447-.1-2.2.2-3.658-.4-1.634-.671-3.2-1.627-4.779-2.43-4.076-2.075-9.26-3.841-12.862-6.7a21.245,21.245,0,0,0-5.154-2.916c-.7-.292-1.615-.642-2.756-1.048-1.846-.689-5.211-1.119-6.287-3.068-1.2-2.181,1.694-5.492,3.312-7.217a6.067,6.067,0,0,0,1.806-2.552c.351-1.459-.59-2.886-1.482-4.094l-4.311-5.841c-2.294-3.109-7.523-.158-10.892-2.582a32.135,32.135,0,0,1-2.529-2.375,4.349,4.349,0,0,0-3.107-1.323c-1.765.14-2.892,1.777-4.378,2.533a10,10,0,0,1-5.669.93c-1.6-.154-3.5-.794-5.1-.594a9.082,9.082,0,0,0-3.869,2.011,80.814,80.814,0,0,0-7.282,6.66,34.633,34.633,0,0,1-5.49,4.011c-2.337,1.475-4.323,3.35-6.806,4.643-2.132,1.109-5.174,3.332-7.677,2.744-2.919-.685-5.136-2.462-8.356-1.536a13.881,13.881,0,0,0-3.462,1.773,104.779,104.779,0,0,1-27.847,12.262,120.207,120.207,0,0,0-13.772,4.341c-4.856,1.974-9.668,4.084-14.664,5.687-3.078.987-6.214,1.788-9.345,2.586-6.9,1.761-12.7,4.9-19.467,2.758a9.491,9.491,0,0,0-3.494-.651c-2.746.2-4.726,2.756-7.341,3.618a12.117,12.117,0,0,1-5.111.19,175.694,175.694,0,0,1-20.612-3.524,4.385,4.385,0,0,0-1.64-.17c-.671.1-1.178.645-1.812.894-18.005,7.071-38,9.728-57.044,12.4-21.743,3.05-43.307,7.31-64.971,10.861-18.052,2.959-34.424,11.109-52.1,16.295-9.852,2.892-19.477,1.94-23.867,11.186-4.266,8.991-1.569,26.382-1.625,36.214-.093,16.173,21.494,14.734,34.677,16.909q26.035,4.293,52.19,7.815,52.36,7.062,105.043,11.342c28.968,2.406,68.708,6.81,96.065-4.923A50.233,50.233,0,0,0,901.233,330.92Z" transform="translate(-605.94 -165.007)" fill="#f0e8d6"/>
        <g id="Group_3331" data-name="Group 3331" transform="translate(262.302 4.994)">
          <path id="Path_802" data-name="Path 802" d="M819.524,176.064a2.457,2.457,0,0,0-.49-.055q-.015,0-10.259,3.1,3.049.8,1.437,5.057c-1.064,2.848-1.214,4.161-.425,3.964a16.962,16.962,0,0,1,3.713-.367,9.017,9.017,0,0,1,5.3,2.24c1.35,1.078,3.111,4.473,5.079,4.181a1.621,1.621,0,0,0,.955-.61c2.086-2.465.2-7.821-1.419-10.17-.448-.651-.724-1.07-.831-1.269-.756-1.546-1.4-2.882-1.958-3.974C820.215,177.332,819.842,176.637,819.524,176.064Z" transform="translate(-659.985 -158.704)" fill="#ad8e4a"/>
          <path id="Path_803" data-name="Path 803" d="M827.023,182.533c-.136-.367-.294-.744-.6-.837a.552.552,0,0,0-.385.079,32.293,32.293,0,0,1-4.146,1.925c-1.372.44-5.022,2.373-6.315,2.019q3.1.851,1.459,5.421c-1.08,3.056-1.232,4.465-.432,4.252a16.455,16.455,0,0,1,3.776-.391,6.146,6.146,0,0,1,4.716,2.357c1.427,1.609,2.542,1.492,3.332-.332s2.12-2.179,4-1.042c-.547-1.777.9-2.608.73-4.487a7.476,7.476,0,0,0-1.336-3.368,20.281,20.281,0,0,0-2.758-3.314,17.365,17.365,0,0,1-1.749-1.63A2.753,2.753,0,0,1,827.023,182.533Z" transform="translate(-653.001 -152.878)" fill="#ad8e4a"/>
          <g id="Group_3330" data-name="Group 3330">
            <path id="Path_804" data-name="Path 804" d="M938.565,214.242c-2.491-.413-4.659-.811-6.745-2.588-2.85-2.426-3.962-6.281-7.282-8.575A10.318,10.318,0,0,0,922.274,202c-4.479-1.7-8.928-3.642-13.4-5.225a39.418,39.418,0,0,0,1.293,3.786c.951,2.055,3.081,4.353,2.637,6.66-1.561-1.364-3.372-2.631-4.783-4.116-1.354-1.427-2.173-3.336-3.214-4.984-.487-.77-1.283-1.3-1.7-2.088a22.2,22.2,0,0,0-1.35-3.085c-1.937-2.72-4.256-6.662-7.381-8.149.16.077.926,2.862,1.137,3.259a14.329,14.329,0,0,1,1.317,3.1c.71,2.509,1.534,5.03,1.251,7.675a3.134,3.134,0,0,1-.582,1.721l-1.927-2.769-6.257-8.978A26.22,26.22,0,0,0,883,182.469c-1.788-1.358-2.548-1.846-2.967-4.1a9.2,9.2,0,0,0-1.05-3.707,6.71,6.71,0,0,0-1.025-1.08c-.949-.859-1.942-1.686-2.85-2.586-.762-.754-1.135-1.727-2-2.385-.379-.29-1.411-1.33-1.952-1.115s-.012,1.364.16,1.7c.517.993,1.261,1.85,1.753,2.86,2.809,5.754-3.052,10-5.823,14.228-4.7,7.166-8.525,15.01-13.3,22.278-2.136,3.247-5.6,5.034-8.259,7.773-2.975,3.062-5.452,6.627-8.867,9.24-3.05,2.335-6.149,4.613-9.244,6.895a34.857,34.857,0,0,0-2.756,2.179c-1.548,1.4-3.364,2.355-4.8,3.8-1.2,1.21-2.3,2.535-3.407,3.833-2.386,2.811-4.647,5.725-6.826,8.7C805,257.5,800.6,264.308,796.413,271.228c-8.1,13.38-53.872,26.625-60.8,40.65-3.567,7.225,31.372,15.093,28.111,22.462l-.081.184.774,0,59.233-.318,57.908-.31,34.12-.182q9.056-.049,18.129-.1c11.672-.057,16.97-2.187,26.35-10.519,8.368-7.432,24.882,4.286,30.133-5.557,7.191-13.478,5.419-52.273,7.446-67.533,1.808-13.61-18.532-18.279-29.554-24.029-8.425-4.394-17.022-8.9-26.331-11.113C940.691,214.587,939.6,214.412,938.565,214.242Z" transform="translate(-735.361 -167.471)" fill="#c8ac70"/>
          </g>
        </g>
        <path id="Path_805" data-name="Path 805" d="M856.556,189.349c-2.175,2.242-3.972,3.77-5.069,6.715,1.749.634,3.044-.235,4.765-.336,2.177-.128,2.574,1.2,4.536,1.792.871.261,1.792.012,2.621.253-.476,1.265-.744,1.4-2.009,2.071-1.307.7-2.633,1.364-3.948,2.049q-4.113,2.146-8.138,4.455c-1.98,1.135-3.913,2.542-5.985,3.5a23.853,23.853,0,0,1-4.031,1.792,7.53,7.53,0,0,1,.9-2.724c.752-2.021,2.213-3.806,2.54-5.963-2.542,1.356-4.226,3.741-6.443,5.5a8.023,8.023,0,0,0-1.184,1.435,16.524,16.524,0,0,1-1.3,1.285,22.864,22.864,0,0,1-2.325,2.523,17.419,17.419,0,0,1-2.442,1.482c-.527.257-1.05.492-1.563.75a5.44,5.44,0,0,1-1.159.415,12.91,12.91,0,0,0-1.277.452,6.593,6.593,0,0,0-1.5.484,21.335,21.335,0,0,0,2.957-2.179c-2.156,1.978-5.065.855-6.638,4.167a26.027,26.027,0,0,1,2.922.821c-2.325,10.456,8.48,8,14.706,11.783-21.376,25.916-34.959,46.288-59.859,71.191-1.4,1.4-16.98,2.264-13.216,5.154,7.533,5.788-12.5-4.384-20.693-6.394-1.386-.34,29.5-77.285,41.534-82.235,2.43-1,4.54-2.631,6.976-3.567,1.5-.576,2.864-1.4,4.337-2.021,1.544-.649,3.1-1.145,4.6-1.9.792-.4,1.617-.715,2.428-1.078.64-.286,1.2-.687,1.814-1.019,1.17-.634,2.394-1.135,3.61-1.67a10.158,10.158,0,0,0,2.329-1.22A11.478,11.478,0,0,1,812.9,206c1.4-.756,2.758-1.554,4.143-2.331,1.021-.574,2.009-1.169,3-1.794,1.021-.641,2.185-.88,3.2-1.538.7-.452,1.4-.878,2.059-1.386a7.46,7.46,0,0,1,1.763-.8c1.186-.521,2.055-1.567,3.174-2.209a33.83,33.83,0,0,1,3.855-2.088,10.817,10.817,0,0,0,2.448-1.4,20.864,20.864,0,0,1,2.3-1.431,14.4,14.4,0,0,1,1.937-.566,14.9,14.9,0,0,0,3.093-2.006c.63-.43,1.226-.752,1.826-1.24a7.622,7.622,0,0,1,1.4-.957,12.033,12.033,0,0,0,2.077-1.034c.343-.253.616-.576.952-.837.892-.689,2-1.074,2.911-1.769,2.779-2.134,5.861-3.664,8.757-5.705a1.818,1.818,0,0,1,.663-.343,1.245,1.245,0,0,1,1.323.991,3.224,3.224,0,0,1-.2,1.788C862.223,183.461,859.5,186.315,856.556,189.349Z" transform="translate(-464.513 -153.156)" fill="#e2cfa8"/>
        <path id="Path_806" data-name="Path 806" d="M814.109,168.7a6.227,6.227,0,0,1-3.476-2.233,10.377,10.377,0,0,0-.872,1.336c-.45.576-.9,1.153-1.356,1.725-2.376,2.969-5.94,4.71-8.709,7.406a44.208,44.208,0,0,0-3.228,3.344,13.7,13.7,0,0,1-3.107,3.237c1.017,1.86-1.97,3.312-3.684,5.209-2.244,2.483-3.77,5.087-5.726,7.59,2.8-.961,6.4-4.97,8.545-6.952,2.458-2.28,5.217-4.9,7.493-7.31a36.67,36.67,0,0,1,4.884-4.5c1.283-1.005,2.671-1.786,3.9-2.722a32.58,32.58,0,0,0,2.588-2.254c1.392-1.338,2.552-2.777,4.491-3.427C815.29,169.024,814.7,168.882,814.109,168.7Z" transform="translate(-423.17 -163.51)" fill="#e2cfa8" opacity="0.68"/>
        <path id="Path_807" data-name="Path 807" d="M799.677,177.371a2.966,2.966,0,0,0,.754-.888,3.427,3.427,0,0,1,.673-.831l.961-.965a.3.3,0,0,0,.111-.188c0-.075-.075-.12-.142-.154a4.246,4.246,0,0,0-2.562-.612,10.172,10.172,0,0,1-1.313.195,4.7,4.7,0,0,1-.983-.2c1.052.156.752.91.114,1.739-.288.375-.92.977-1.139,1.323-.46.734-.006.928-.827,1.7-.934.88-1.757,1.648-2.608,2.566-.511.551-2.475,2.5-2.27,2.925a14.3,14.3,0,0,0,3.154-2.01c.8-.586,1.532-1.267,2.29-1.881s1.6-1.163,2.41-1.731C798.727,178.06,799.244,177.74,799.677,177.371Z" transform="translate(-416.517 -156.081)" fill="#e2cfa8" opacity="0.68"/>
        <path id="Path_808" data-name="Path 808" d="M781.508,183.059a6.475,6.475,0,0,0,1.619-1.842,7.517,7.517,0,0,1,1.445-1.721l2.057-2.011c.118-.116.245-.249.245-.389s-.152-.239-.29-.306a8.851,8.851,0,0,0-5.336-1.121,22.584,22.584,0,0,1-2.756.456,9.9,9.9,0,0,1-2.045-.353c2.193.268,1.526,1.814.152,3.533-.618.774-1.974,2.031-2.444,2.746-1,1.514-.061,1.887-1.812,3.5-2,1.836-3.758,3.437-5.584,5.347-1.095,1.145-5.3,5.2-4.886,6.058,2.314-.867,4.769-2.848,6.694-4.24,1.7-1.23,3.267-2.649,4.882-3.936,1.634-1.3,3.4-2.444,5.124-3.638C779.486,184.506,780.582,183.827,781.508,183.059Z" transform="translate(-445.867 -154.153)" fill="#e2cfa8" opacity="0.68"/>
      </g>
    </g>
  </g>
</svg>
